<svg xmlns="http://www.w3.org/2000/svg" width="11" height="8" fill="none" viewBox="0 0 11 8">
    <path fill="#2B2B2B" fill-rule="evenodd" d="M.707 1.705c.39-.39 1.024-.39 1.414 0l3.85 3.85c.391.39.391 1.024 0 1.415-.39.39-1.023.39-1.414 0L.707 3.12c-.39-.391-.39-1.024 0-1.415z" clip-rule="evenodd"/>
    <path fill="#2B2B2B" fill-rule="evenodd" d="M10.121 1.705c-.39-.39-1.024-.39-1.414 0l-3.85 3.85c-.391.39-.391 1.024 0 1.415.39.39 1.023.39 1.414 0l3.85-3.85c.39-.391.39-1.024 0-1.415z" clip-rule="evenodd"/>
</svg>
