<svg xmlns="http://www.w3.org/2000/svg" width="7" height="12" fill="none" viewBox="0 0 7 12">
    <path fill="#2B2B2B" fill-rule="evenodd" d="M.781 11.047c-.39-.39-.39-1.024 0-1.414l3.85-3.85c.391-.391 1.024-.391 1.415 0 .39.39.39 1.023 0 1.413l-3.85 3.85c-.391.391-1.024.391-1.415 0z" clip-rule="evenodd"/>
    <path fill="#2B2B2B" fill-rule="evenodd" d="M.781 1.633c-.39.39-.39 1.024 0 1.414l3.85 3.85c.391.39 1.024.39 1.415 0 .39-.39.39-1.023 0-1.414l-3.85-3.85c-.391-.39-1.024-.39-1.415 0z" clip-rule="evenodd"/>
</svg>
