<svg xmlns="http://www.w3.org/2000/svg" width="124" height="124" fill="none" viewBox="0 0 124 124">
    <g filter="url(#filter0_d)">
        <rect width="108" height="108" x="8" y="4" fill="#fff" rx="20"/>
    </g>
    <path fill="#2B2B2B" d="M90.467 70.533c-.8 0-1.467.667-1.467 1.467v6.133c0 3.8-3.067 6.867-6.867 6.867h-6.666c-.8 0-1.467.666-1.467 1.466 0 .8.667 1.467 1.467 1.467h6.666c5.4 0 9.8-4.4 9.8-9.8V72c0-.8-.666-1.467-1.466-1.467zM82.133 28.066h-6.666c-.8 0-1.467.667-1.467 1.467S74.667 31 75.467 31h6.666c3.8 0 6.867 3.066 6.867 6.866V45c0 .8.667 1.466 1.467 1.466S91.933 45.8 91.933 45v-7.134c0-5.4-4.4-9.8-9.8-9.8zM74.6 57.267c1 0 1.8-.8 1.866-1.8v-4.8c0-1.067-.8-1.867-1.867-1.867s-1.867.867-1.867 1.867V55.4c0 1.067.867 1.867 1.867 1.867zM71.133 70.2c-2.4 2.4-5.6 3.733-8.867 3.733h-.533c-3.333 0-6.467-1.333-8.867-3.733-.533-.6-1.466-.6-2.066 0-.6.533-.6 1.467 0 2.067 3 3 6.866 4.6 10.933 4.6h.533c4.067 0 8-1.6 10.934-4.6.6-.534.6-1.467 0-2.067-.534-.6-1.467-.6-2.067 0zM58.334 66.133h.333c3 0 5.4-2.4 5.4-5.333V50.667c0-.8-.666-1.467-1.466-1.467-.8 0-1.467.667-1.467 1.467v10.066c0 1.4-1.133 2.467-2.467 2.467h-.333c-.8 0-1.467.667-1.467 1.467s.667 1.466 1.467 1.466zM48.466 48.8c-1.066 0-1.866.867-1.866 1.867V55.4c0 1.067.866 1.867 1.866 1.867 1.067 0 1.867-.8 1.867-1.8v-4.8c0-1.067-.867-1.867-1.867-1.867zM33.533 46.466c.8 0 1.467-.666 1.467-1.466v-7.134c0-3.8 3.066-6.866 6.866-6.866h6.667c.8 0 1.467-.667 1.467-1.467s-.667-1.467-1.467-1.467h-6.667c-5.4 0-9.8 4.4-9.8 9.8V45c0 .8.667 1.466 1.467 1.466zM48.467 85H41.8c-3.8 0-6.867-3.067-6.867-6.867V72c0-.8-.666-1.467-1.466-1.467-.8 0-1.467.667-1.467 1.467v6.133c0 5.4 4.4 9.8 9.8 9.8h6.667c.866 0 1.466-.667 1.466-1.467S49.267 85 48.467 85z"/>
    <defs>
        <filter id="filter0_d" width="124" height="124" x="0" y="0" color-interpolation-filters="sRGB" filterUnits="userSpaceOnUse">
            <feFlood flood-opacity="0" result="BackgroundImageFix"/>
            <feColorMatrix in="SourceAlpha" values="0 0 0 0 0 0 0 0 0 0 0 0 0 0 0 0 0 0 127 0"/>
            <feOffset dy="4"/>
            <feGaussianBlur stdDeviation="4"/>
            <feColorMatrix values="0 0 0 0 0.972549 0 0 0 0 0.92549 0 0 0 0 0.839216 0 0 0 1 0"/>
            <feBlend in2="BackgroundImageFix" result="effect1_dropShadow"/>
            <feBlend in="SourceGraphic" in2="effect1_dropShadow" result="shape"/>
        </filter>
    </defs>
</svg>
