<svg xmlns="http://www.w3.org/2000/svg" width="124" height="124" fill="none" viewBox="0 0 124 124">
    <g filter="url(#filter0_d)">
        <rect width="108" height="108" x="8" y="4" fill="#fff" rx="20"/>
    </g>
    <path fill="#000" d="M79.44 35.41c-.24 0-.48-.06-.69-.18C72.99 32.26 68.01 31 62.04 31c-5.94 0-11.58 1.41-16.71 4.23-.72.39-1.62.12-2.04-.6-.39-.72-.12-1.65.6-2.04C49.47 29.56 55.59 28 62.04 28c6.39 0 11.97 1.41 18.09 4.56.75.39 1.02 1.29.63 2.01-.27.54-.78.84-1.32.84zM36.51 51.16c-.3 0-.6-.09-.87-.27-.69-.48-.84-1.41-.36-2.1 2.97-4.2 6.75-7.5 11.25-9.81 9.42-4.86 21.48-4.89 30.93-.03 4.5 2.31 8.28 5.58 11.25 9.75.48.66.33 1.62-.36 2.1s-1.62.33-2.1-.36c-2.7-3.78-6.12-6.75-10.17-8.82-8.61-4.41-19.62-4.41-28.2.03-4.08 2.1-7.5 5.1-10.2 8.88-.24.42-.69.63-1.17.63zm18.75 36.21c-.39 0-.78-.15-1.05-.45-2.61-2.61-4.02-4.29-6.03-7.92-2.07-3.69-3.15-8.19-3.15-13.02 0-8.91 7.62-16.17 16.98-16.17s16.98 7.26 16.98 16.17c0 .84-.66 1.5-1.5 1.5s-1.5-.66-1.5-1.5c0-7.26-6.27-13.17-13.98-13.17-7.71 0-13.98 5.91-13.98 13.17 0 4.32.96 8.31 2.79 11.55 1.92 3.45 3.24 4.92 5.55 7.26.57.6.57 1.53 0 2.13-.33.3-.72.45-1.11.45zm21.51-5.55c-3.57 0-6.72-.9-9.3-2.67-4.47-3.03-7.14-7.95-7.14-13.17 0-.84.66-1.5 1.5-1.5s1.5.66 1.5 1.5c0 4.23 2.16 8.22 5.82 10.68 2.13 1.44 4.62 2.13 7.62 2.13.72 0 1.92-.09 3.12-.3.81-.15 1.59.39 1.74 1.23.15.81-.39 1.59-1.23 1.74-1.71.33-3.21.36-3.63.36zM70.74 88c-.12 0-.27-.03-.39-.06-4.77-1.32-7.89-3.09-11.16-6.3-4.2-4.17-6.51-9.72-6.51-15.66 0-4.86 4.14-8.82 9.24-8.82 5.1 0 9.24 3.96 9.24 8.82 0 3.21 2.79 5.82 6.24 5.82s6.24-2.61 6.24-5.82c0-11.31-9.75-20.49-21.75-20.49-8.52 0-16.32 4.74-19.83 12.09-1.17 2.43-1.77 5.28-1.77 8.4 0 2.34.21 6.03 2.01 10.83.3.78-.09 1.65-.87 1.92-.78.3-1.65-.12-1.92-.87-1.47-3.93-2.19-7.83-2.19-11.88 0-3.6.69-6.87 2.04-9.72 3.99-8.37 12.84-13.8 22.53-13.8 13.65 0 24.75 10.53 24.75 23.49 0 4.86-4.14 8.82-9.24 8.82-5.1 0-9.24-3.96-9.24-8.82 0-3.21-2.79-5.82-6.24-5.82s-6.24 2.61-6.24 5.82c0 5.13 1.98 9.93 5.61 13.53 2.85 2.82 5.58 4.38 9.81 5.55.81.21 1.26 1.05 1.05 1.83-.15.69-.78 1.14-1.41 1.14z"/>
    <defs>
        <filter id="filter0_d" width="124" height="124" x="0" y="0" color-interpolation-filters="sRGB" filterUnits="userSpaceOnUse">
            <feFlood flood-opacity="0" result="BackgroundImageFix"/>
            <feColorMatrix in="SourceAlpha" values="0 0 0 0 0 0 0 0 0 0 0 0 0 0 0 0 0 0 127 0"/>
            <feOffset dy="4"/>
            <feGaussianBlur stdDeviation="4"/>
            <feColorMatrix values="0 0 0 0 0.972549 0 0 0 0 0.92549 0 0 0 0 0.839216 0 0 0 1 0"/>
            <feBlend in2="BackgroundImageFix" result="effect1_dropShadow"/>
            <feBlend in="SourceGraphic" in2="effect1_dropShadow" result="shape"/>
        </filter>
    </defs>
</svg>
