<svg xmlns="http://www.w3.org/2000/svg" width="76" height="76" fill="none" viewBox="0 0 76 76">
    <g filter="url(#filter0_d)">
        <path fill="#fff" d="M38 61c15.464 0 28-12.536 28-28S53.464 5 38 5 10 17.536 10 33s12.536 28 28 28z"/>
    </g>
    <mask id="f76qmxswca" fill="#fff">
        <path fill-rule="evenodd" d="M46.3 28.336c.681.652.681 1.71 0 2.362l-7.066 6.763c-.682.652-1.787.652-2.47 0L29.7 30.698c-.682-.652-.682-1.71 0-2.362l.141-.122c.686-.528 1.691-.487 2.327.122l4.087 3.912V20.235c0-.923.781-1.67 1.745-1.67l.168.007c.886.081 1.578.795 1.578 1.663v12.013l4.086-3.912c.682-.653 1.787-.653 2.469 0zM30.068 43.237c0 .973.789 1.762 1.762 1.762h12.337c.973 0 1.762-.789 1.762-1.762s-.789-1.762-1.762-1.762H31.83c-.973 0-1.762.789-1.762 1.762z" clip-rule="evenodd"/>
    </mask>
    <path fill="#FFA600" fill-rule="evenodd" d="M46.3 28.336c.681.652.681 1.71 0 2.362l-7.066 6.763c-.682.652-1.787.652-2.47 0L29.7 30.698c-.682-.652-.682-1.71 0-2.362l.141-.122c.686-.528 1.691-.487 2.327.122l4.087 3.912V20.235c0-.923.781-1.67 1.745-1.67l.168.007c.886.081 1.578.795 1.578 1.663v12.013l4.086-3.912c.682-.653 1.787-.653 2.469 0zM30.068 43.237c0 .973.789 1.762 1.762 1.762h12.337c.973 0 1.762-.789 1.762-1.762s-.789-1.762-1.762-1.762H31.83c-.973 0-1.762.789-1.762 1.762z" clip-rule="evenodd"/>
    <path fill="#fff" d="M46.3 30.698l-.07-.072.07.072zm0-2.362l-.07.072.07-.072zm-7.066 9.125l-.07-.072.07.072zm-2.47 0l.07-.072-.07.072zM29.7 30.698l.069-.072-.07.072zm0-2.362l-.066-.076-.003.003.069.073zm.141-.122l-.06-.08-.005.004.066.076zm2.327.122l.07-.072-.07.072zm4.087 3.912l-.069.072.17.162v-.234h-.1zm0-12.013h-.1.1zm1.745-1.67l.005-.1h-.005v.1zm.168.007l.01-.1h-.005l-.005.1zm1.578 1.663h-.1.1zm0 12.013h-.1v.234l.17-.162-.07-.072zm4.086-3.912l-.069-.072.07.072zM30.068 43.237h.1-.1zm14.099-1.762v-.1.1zm-12.337 0v.1-.1zM46.37 30.77c.723-.691.723-1.815 0-2.506l-.139.144c.641.613.641 1.605 0 2.218l.139.144zm-7.066 6.763l7.066-6.763-.139-.144-7.066 6.763.139.144zm-2.607 0c.72.69 1.886.69 2.607 0l-.139-.144c-.643.615-1.687.615-2.33 0l-.138.144zM29.63 30.77l7.066 6.763.138-.144-7.066-6.763-.138.144zm0-2.506c-.723.691-.723 1.815 0 2.506l.138-.144c-.64-.613-.64-1.605 0-2.218l-.138-.145zm.145-.126l-.141.122.13.152.142-.122-.13-.152zm2.462.125c-.673-.643-1.734-.686-2.458-.128l.122.158c.648-.498 1.597-.46 2.197.115l.139-.145zm4.087 3.913l-4.087-3.913-.139.145 4.087 3.912.139-.144zm-.17-11.941v12.013h.2V20.235h-.2zm1.845-1.77c-1.015 0-1.845.788-1.845 1.77h.2c0-.863.732-1.57 1.645-1.57v-.2zm.173.007l-.168-.007-.01.2.169.007.009-.2zm1.673 1.763c0-.924-.736-1.677-1.669-1.762l-.018.199c.838.076 1.487.75 1.487 1.563h.2zm0 12.013V20.235h-.2v12.013h.2zm3.917-3.984l-4.086 3.912.138.144 4.086-3.912-.138-.145zm2.607 0c-.72-.69-1.887-.69-2.607 0l.138.144c.643-.615 1.688-.615 2.33 0l.139-.145zM31.83 44.898c-.918 0-1.662-.744-1.662-1.662h-.2c0 1.029.834 1.862 1.862 1.862v-.2zm12.337 0H31.83v.2h12.337v-.2zm1.662-1.662c0 .918-.744 1.662-1.662 1.662v.2c1.028 0 1.862-.833 1.862-1.862h-.2zm-1.662-1.662c.918 0 1.662.744 1.662 1.662h.2c0-1.029-.834-1.862-1.862-1.862v.2zm-12.337 0h12.337v-.2H31.83v.2zm-1.662 1.662c0-.918.744-1.662 1.662-1.662v-.2c-1.028 0-1.862.833-1.862 1.862h.2z" mask="url(#f76qmxswca)"/>
    <defs>
        <filter id="filter0_d" width="75.478" height="75.478" x=".261" y=".13" color-interpolation-filters="sRGB" filterUnits="userSpaceOnUse">
            <feFlood flood-opacity="0" result="BackgroundImageFix"/>
            <feColorMatrix in="SourceAlpha" values="0 0 0 0 0 0 0 0 0 0 0 0 0 0 0 0 0 0 127 0"/>
            <feOffset dy="4.87"/>
            <feGaussianBlur stdDeviation="4.87"/>
            <feColorMatrix values="0 0 0 0 0.972549 0 0 0 0 0.92549 0 0 0 0 0.839216 0 0 0 1 0"/>
            <feBlend in2="BackgroundImageFix" result="effect1_dropShadow"/>
            <feBlend in="SourceGraphic" in2="effect1_dropShadow" result="shape"/>
        </filter>
    </defs>
</svg>
