<svg xmlns="http://www.w3.org/2000/svg" width="80" height="80" fill="none" viewBox="0 0 80 80">
    <g filter="url(#filter0_d)">
        <circle cx="40" cy="37" r="28" fill="#fff"/>
    </g>
    <path fill="#FFA600" fill-rule="evenodd" d="M50.204 28.162c-.727-2.405-3.266-3.765-5.67-3.038l-15.286 4.62c-1.336.404-2.391 1.433-2.83 2.758-.742 2.248.478 4.672 2.725 5.415l6.446 2.13c.7.232 1.284.722 1.633 1.371l3.218 5.978c.661 1.229 1.88 2.059 3.265 2.224 2.35.282 4.484-1.396 4.765-3.746l1.897-15.856c.074-.623.019-1.255-.163-1.857zm-4.758-.02c.738-.223 1.516.195 1.74.932.055.184.072.378.05.57l-1.897 15.855c-.075.621-.639 1.064-1.26.99-.366-.044-.688-.263-.862-.588l-3.218-5.978c-.11-.203-.23-.4-.36-.587l2.356-2.81c.56-.668.472-1.662-.195-2.222s-1.661-.473-2.221.194l-2.359 2.809c-.207-.096-.422-.18-.641-.254l-6.446-2.13c-.594-.196-.916-.837-.72-1.43.116-.351.395-.623.748-.73l15.285-4.62z" clip-rule="evenodd"/>
    <defs>
        <filter id="filter0_d" width="80" height="80" x="0" y="0" color-interpolation-filters="sRGB" filterUnits="userSpaceOnUse">
            <feFlood flood-opacity="0" result="BackgroundImageFix"/>
            <feColorMatrix in="SourceAlpha" values="0 0 0 0 0 0 0 0 0 0 0 0 0 0 0 0 0 0 127 0"/>
            <feOffset dy="3"/>
            <feGaussianBlur stdDeviation="6"/>
            <feColorMatrix values="0 0 0 0 0.968627 0 0 0 0 0.921569 0 0 0 0 0.835294 0 0 0 1 0"/>
            <feBlend in2="BackgroundImageFix" result="effect1_dropShadow"/>
            <feBlend in="SourceGraphic" in2="effect1_dropShadow" result="shape"/>
        </filter>
    </defs>
</svg>
