<svg xmlns="http://www.w3.org/2000/svg" width="8" height="12" fill="none" viewBox="0 0 8 12">
    <path fill="#2B2B2B" fill-rule="evenodd" d="M1.293 10.707c-.39-.39-.39-1.024 0-1.414l3.85-3.85c.39-.391 1.024-.391 1.414 0 .39.39.39 1.023 0 1.414l-3.85 3.85c-.39.39-1.024.39-1.414 0z" clip-rule="evenodd"/>
    <path fill="#2B2B2B" fill-rule="evenodd" d="M1.293 1.293c-.39.39-.39 1.024 0 1.414l3.85 3.85c.39.391 1.024.391 1.414 0 .39-.39.39-1.023 0-1.414l-3.85-3.85c-.39-.39-1.024-.39-1.414 0z" clip-rule="evenodd"/>
</svg>
