<svg xmlns="http://www.w3.org/2000/svg" width="56" height="56" fill="none" viewBox="0 0 56 56">
    <path fill="#F6E9D3" d="M28 56c15.464 0 28-12.536 28-28S43.464 0 28 0 0 12.536 0 28s12.536 28 28 28z"/>
    <path fill="#2B2B2B" d="M37.142 24.06c-.192-.32-.537-.515-.909-.515H28.81V15.06c0-.486-.331-.91-.803-1.028-.472-.118-.964.1-1.193.529L18.328 30.47c-.175.329-.165.725.026 1.045.192.32.537.515.91.515h7.424v8.485c0 .486.33.91.803 1.029.084.021.17.032.257.032.392 0 .752-.216.936-.562l8.485-15.909c.175-.329.165-.726-.027-1.045zM28.81 36.273v-5.304c0-.585-.475-1.06-1.06-1.06h-6.717l5.656-10.606v5.303c0 .586.475 1.06 1.06 1.06h6.717L28.81 36.273z"/>
</svg>
