<svg xmlns="http://www.w3.org/2000/svg" width="30" height="25" fill="none" viewBox="0 0 30 25">
    <path fill="#FFC55A" d="M25.016 13.36c.022.147.006.297-.046.436l-1.083 2.624c-.107.283-.353.489-.648.542l-3.077.553c-.465.084-.908-.229-.99-.698-.019-.103-.018-.208 0-.31l.491-2.632c.067-.36.353-.638.712-.693l3.67-.545c.466-.071.9.253.971.724zm-2.22.92l-1.561.233c-.12.018-.216.11-.238.23l-.15.802c-.029.156.073.306.227.336.034.006.069.006.103 0l1.389-.25c.095-.017.176-.082.213-.172l.322-.785c.06-.147-.008-.315-.153-.376-.048-.02-.1-.026-.151-.019zm4.42-6.399c.018.14.001.282-.049.413l-1.043 2.645c-.11.294-.37.503-.678.547l-4.23.616c-.468.068-.9-.26-.967-.732-.013-.093-.01-.188.007-.28l.495-2.66c.069-.368.365-.65.733-.696l4.78-.602c.468-.059.894.276.953.75zm-2.674.857l-2.738.345c-.122.015-.22.109-.244.232l-.16.856c-.028.156.073.306.228.336.03.006.062.006.093.002l2.558-.374c.1-.015.184-.08.222-.175l.34-.827c.06-.147-.01-.315-.155-.376-.045-.019-.095-.025-.144-.02zm5.455-7.676c.012.169-.012.34-.072.498L28.46 5.272c-.15.396-.502.676-.918.73l-7.68.994c-.623.08-1.194-.365-1.274-.995-.014-.114-.011-.23.008-.345l.838-4.06c.09-.517.516-.907 1.034-.947l8.307-.646c.627-.048 1.174.426 1.223 1.059zm-3.28 1.118l-5.868.49-.438 2.276 5.782-.806c.197-.028.366-.158.445-.343l.46-1.084c.082-.194-.008-.42-.2-.503-.057-.025-.119-.035-.18-.03z"/>
    <path fill="#E75A2B" d="M9.334 3.928H4.51c-.615 0-1.142.446-1.25 1.059L.02 23.494c-.123.698.338 1.363 1.028 1.487.073.013.147.02.221.02h4.822c.616 0 1.142-.447 1.25-1.06l.977-5.567c.043-.245.254-.423.5-.423h3.099c.28 0 .508.23.508.513 0 .03-.003.06-.008.09l-.867 4.94c-.123.697.337 1.363 1.027 1.487.074.013.148.02.222.02h4.822c.616 0 1.143-.447 1.25-1.06l3.242-18.507c.122-.698-.338-1.363-1.028-1.487-.073-.013-.148-.02-.222-.02h-4.821c-.615 0-1.142.446-1.25 1.058l-.95 5.39c-.044.245-.255.424-.5.424h-3.099c-.28 0-.508-.23-.508-.513 0-.03.003-.06.008-.09l.84-4.76c.123-.698-.336-1.364-1.026-1.488-.074-.014-.148-.02-.223-.02z"/>
</svg>
