<svg xmlns="http://www.w3.org/2000/svg" width="119" height="113" fill="none" viewBox="0 0 119 113">
    <path fill="#C7B299" fill-rule="evenodd" d="M117.918 88.814c.593 6.788-17.652 13.93-40.75 15.953-23.1 2.023-42.306-1.838-42.899-8.625-.593-6.788 17.652-13.93 40.751-15.954 23.099-2.023 42.305 1.838 42.898 8.626z" clip-rule="evenodd" opacity=".525"/>
    <path fill="#E75A2B" stroke="#fff" stroke-width="4.886" d="M44.459 100.883c24.544 6.589 49.768-7.982 56.338-32.546 6.57-24.563-8.001-49.818-32.546-56.407-24.545-6.589-49.769 7.983-56.339 32.547-6.57 24.563 8.002 49.817 32.547 56.406z"/>
    <path stroke="#fff" stroke-linecap="round" stroke-width="5.701" d="M46.115 54.94l5.233 9.065M68.932 49.145L51.308 64.02"/>
</svg>
