<svg width="126" height="112" viewBox="0 0 126 112" fill="none" xmlns="http://www.w3.org/2000/svg">
<path fill-rule="evenodd" clip-rule="evenodd" d="M124.214 90.0175C124.838 97.142 105.665 104.638 81.3913 106.761C57.1168 108.885 36.9335 104.833 36.3102 97.7081C35.6869 90.5836 54.8598 83.087 79.1343 80.9632C103.408 78.8396 123.591 82.893 124.214 90.0175Z" fill="#293A6C" fill-opacity="0.12"/>
<path d="M47.6729 103.606C73.9649 108.242 99.0369 90.6862 103.673 64.3942C108.309 38.1022 90.7532 13.0302 64.4613 8.39419C38.1693 3.75821 13.0973 21.3138 8.46128 47.6058C3.8253 73.8978 21.3809 98.9698 47.6729 103.606Z" fill="#081132" stroke="white" stroke-width="5.16923"/>
<path d="M49.3438 46.3984L63.2922 66.3189" stroke="white" stroke-width="5.20587" stroke-linecap="round"/>
<path d="M66.2773 49.3848L46.3569 63.3332" stroke="white" stroke-width="5.20587" stroke-linecap="round"/>
</svg>
