<svg xmlns="http://www.w3.org/2000/svg" width="150" height="138" fill="none" viewBox="0 0 150 138">
    <path fill="#C7B299" fill-rule="evenodd" d="M148.1 108.484c.723 8.269-21.531 16.969-49.706 19.434-28.176 2.465-51.603-2.238-52.326-10.508-.724-8.269 21.53-16.971 49.706-19.436 28.175-2.465 51.602 2.24 52.326 10.51z" clip-rule="evenodd" opacity=".475"/>
    <path fill="#2B2B2B" stroke="#fff" stroke-width="6" d="M59.257 124.257c30.517 5.381 59.619-14.996 65-45.514 5.381-30.517-14.996-59.619-45.514-65-30.517-5.38-59.619 14.996-65 45.514-5.38 30.517 14.996 59.619 45.514 65z"/>
    <path stroke="#fff" stroke-linecap="round" stroke-width="6.043" d="M61.196 57.855l16.19 23.122M80.853 61.324L57.73 77.514"/>
</svg>
