<svg xmlns="http://www.w3.org/2000/svg" width="228" height="168" fill="none" viewBox="0 0 228 168">
    <path fill="#C7B299" fill-rule="evenodd" d="M224.946 108.405c.722 8.254-21.489 16.937-49.609 19.397-28.121 2.461-51.502-2.234-52.224-10.487-.723-8.254 21.488-16.938 49.609-19.399 28.12-2.46 51.502 2.236 52.224 10.489z" clip-rule="evenodd" opacity=".475"/>
    <path fill="#2B2B2B" stroke="#fff" stroke-width="6" d="M136.276 124.148c30.458 5.37 59.503-14.967 64.873-45.425 5.371-30.458-14.967-59.503-45.425-64.874-30.458-5.37-59.503 14.967-64.873 45.425-5.37 30.458 14.967 59.503 45.425 64.874z"/>
    <path stroke="#fff" stroke-linecap="round" stroke-width="6.043" d="M138.212 57.875l16.158 23.077M157.829 61.336l-23.077 16.159"/>
    <path fill="#C7B299" fill-rule="evenodd" d="M92 145c0 6.628-13.655 12-30.5 12S31 151.628 31 145c0-6.627 13.655-12 30.5-12S92 138.373 92 145z" clip-rule="evenodd" opacity=".311"/>
    <path fill="url(#paint0_linear)" d="M67.962 157.044c-11.993-.237-41.456-2.498-63.986-17.926-1.935-1.324-1.459-4.43.79-5.109 10.345-3.198 32.867-10.874 46.048-20.831.754-.597 1.805-.721 2.713-.318.909.403 1.52 1.263 1.578 2.222.475 4.379 1.873 11.289 5.773 20.221 2.646 5.987 5.807 11.759 9.449 17.254 1.26 1.907-.119 4.533-2.365 4.487z"/>
    <path fill="#010101" d="M43.58 141.138c4.338.231 8.616-.444 12.522-1.976 1.722-.683 3.309-1.612 4.706-2.755.777-.643-.283-1.916-1.063-1.267-3.926 3.262-9.541 4.392-14.837 4.46l-.568-.003-.056-.023h-.182l-.366-.015c-1.069-.06-1.225 1.5-.143 1.545l-.014.034z"/>
    <path fill="#E04D23" d="M65.544 146.244c9.246-21.497 4.189-8.8-8.735-18.865 2.75 7.357 4.237 11.411 8.735 18.865z"/>
    <path fill="#010101" d="M64.89 144.906c-3.605-5.872-5.537-11.556-7.861-18.511 8.867 5.434 2.397 3.064 7.861 18.511z"/>
    <path fill="#C7B299" fill-rule="evenodd" d="M224.946 108.405c.722 8.254-21.489 16.937-49.609 19.397-28.121 2.461-51.502-2.234-52.224-10.487-.723-8.254 21.488-16.938 49.609-19.399 28.12-2.46 51.502 2.236 52.224 10.489z" clip-rule="evenodd" opacity=".475"/>
    <path fill="#2B2B2B" stroke="#fff" stroke-width="6" d="M136.276 124.148c30.458 5.37 59.503-14.967 64.873-45.425 5.371-30.458-14.967-59.503-45.425-64.874-30.458-5.37-59.503 14.967-64.873 45.425-5.37 30.458 14.967 59.503 45.425 64.874z"/>
    <path stroke="#fff" stroke-linecap="round" stroke-width="6.043" d="M138.212 57.875l16.158 23.077M157.829 61.336l-23.077 16.159"/>
    <path fill="#C7B299" fill-rule="evenodd" d="M92 145c0 6.628-13.655 12-30.5 12S31 151.628 31 145c0-6.627 13.655-12 30.5-12S92 138.373 92 145z" clip-rule="evenodd" opacity=".311"/>
    <path fill="url(#paint1_linear)" d="M67.962 157.044c-11.993-.237-41.456-2.498-63.986-17.926-1.935-1.324-1.459-4.43.79-5.109 10.345-3.198 32.867-10.874 46.048-20.831.754-.597 1.805-.721 2.713-.318.909.403 1.52 1.263 1.578 2.222.475 4.379 1.873 11.289 5.773 20.221 2.646 5.987 5.807 11.759 9.449 17.254 1.26 1.907-.119 4.533-2.365 4.487z"/>
    <path fill="#010101" d="M43.58 141.138c4.338.231 8.616-.444 12.522-1.976 1.722-.683 3.309-1.612 4.706-2.755.777-.643-.283-1.916-1.063-1.267-3.926 3.262-9.541 4.392-14.837 4.46l-.568-.003-.056-.023h-.182l-.366-.015c-1.069-.06-1.225 1.5-.143 1.545l-.014.034z"/>
    <path fill="#E04D23" d="M65.544 146.244c9.246-21.497 4.189-8.8-8.735-18.865 2.75 7.357 4.237 11.411 8.735 18.865z"/>
    <path fill="#010101" d="M64.89 144.906c-3.605-5.872-5.537-11.556-7.861-18.511 8.867 5.434 2.397 3.064 7.861 18.511z"/>
    <defs>
        <linearGradient id="paint0_linear" x1="26.387" x2="47.822" y1="138.882" y2="118.948" gradientUnits="userSpaceOnUse">
            <stop stop-color="#FF9D54"/>
            <stop offset="1" stop-color="#FD5F22"/>
        </linearGradient>
        <linearGradient id="paint1_linear" x1="26.387" x2="47.822" y1="138.882" y2="118.948" gradientUnits="userSpaceOnUse">
            <stop stop-color="#FF9D54"/>
            <stop offset="1" stop-color="#FD5F22"/>
        </linearGradient>
    </defs>
</svg>
