<svg width="211" height="211" viewBox="0 0 211 211" fill="none" xmlns="http://www.w3.org/2000/svg">
    <defs>
        <linearGradient id="paint0_linear_3037_34" x1="-99.3582" y1="-101.737" x2="211" y2="211" gradientUnits="userSpaceOnUse">
            <stop stop-color="#FAF4EA"/>
            <stop offset="1" stop-color="#8B5EDB"/>
        </linearGradient>
    </defs>
    <mask id="mask0_3037_34" style="mask-type:alpha" maskUnits="userSpaceOnUse" x="0" y="0" width="211" height="211">
<path d="M105.5 211C163.766 211 211 163.766 211 105.5C211 47.234 163.766 0 105.5 0C47.234 0 0 47.234 0 105.5C0 163.766 47.234 211 105.5 211Z" fill="white"/>
</mask>
<g mask="url(#mask0_3037_34)">
<path d="M105.5 211C163.766 211 211 163.766 211 105.5C211 47.234 163.766 0 105.5 0C47.234 0 0 47.234 0 105.5C0 163.766 47.234 211 105.5 211Z" fill="white"/>
</g>
<mask id="mask1_3037_34" style="mask-type:alpha" maskUnits="userSpaceOnUse" x="0" y="0" width="211" height="211">
<path d="M105.5 211C163.766 211 211 163.766 211 105.5C211 47.234 163.766 0 105.5 0C47.234 0 0 47.234 0 105.5C0 163.766 47.234 211 105.5 211Z" fill="white"/>
</mask>
<g mask="url(#mask1_3037_34)">
<path opacity="0.522915" d="M105.5 211C163.766 211 211 163.766 211 105.5C211 47.234 163.766 0 105.5 0C47.234 0 0 47.234 0 105.5C0 163.766 47.234 211 105.5 211Z" fill="url(#paint0_linear_3037_34)"/>
<path opacity="0.777064" d="M155.632 68.627H55.3154C47.8871 68.627 41.8652 74.6488 41.8652 82.0772V261.133C41.8652 268.561 47.8871 274.583 55.3154 274.583H155.632C163.06 274.583 169.082 268.561 169.082 261.133V82.0772C169.082 74.6488 163.06 68.627 155.632 68.627Z" fill="#FFFCF8"/>
<path d="M41.752 94.8516H168.968" stroke="#C8C8C8" stroke-width="0.280212" stroke-linecap="square"/>
<path d="M41.752 108.301H168.968" stroke="#C8C8C8" stroke-width="0.280212" stroke-linecap="square"/>
<path d="M41.752 121.752H168.968" stroke="#C8C8C8" stroke-width="0.280212" stroke-linecap="square"/>
<path d="M41.752 135.201H168.968" stroke="#C8C8C8" stroke-width="0.280212" stroke-linecap="square"/>
<path d="M41.752 148.652H168.968" stroke="#C8C8C8" stroke-width="0.280212" stroke-linecap="square"/>
<path d="M41.752 162.102H168.968" stroke="#C8C8C8" stroke-width="0.280212" stroke-linecap="square"/>
<path d="M41.752 175.553H168.968" stroke="#C8C8C8" stroke-width="0.280212" stroke-linecap="square"/>
<path d="M41.752 189.002H168.968" stroke="#C8C8C8" stroke-width="0.280212" stroke-linecap="square"/>
<path d="M41.752 202.453H168.968" stroke="#C8C8C8" stroke-width="0.280212" stroke-linecap="square"/>
<path fill-rule="evenodd" clip-rule="evenodd" d="M95.5526 113.249L112.735 131.802C111.139 134.018 109.801 135.437 108.723 136.06C107.644 136.682 105.746 137.131 103.029 137.406L95.5526 113.249Z" fill="#081132"/>
<path fill-rule="evenodd" clip-rule="evenodd" d="M95.552 113.248L99.4765 117.454L97.2318 118.75L95.552 113.248Z" fill="#7B3FE4"/>
<mask id="mask2_3037_34" style="mask-type:alpha" maskUnits="userSpaceOnUse" x="103" y="131" width="65" height="101">
<path d="M103.029 137.406C104.315 137.311 106.073 136.62 108.303 135.332C110.533 134.045 112.011 132.868 112.736 131.802L167.195 226.127C166.212 227.407 164.748 228.609 162.804 229.731C160.86 230.854 159.088 231.52 157.488 231.731L103.029 137.406Z" fill="white"/>
</mask>
<g mask="url(#mask2_3037_34)">
<path d="M103.029 137.406C104.315 137.311 106.073 136.62 108.303 135.332C110.533 134.045 112.011 132.868 112.736 131.802L167.195 226.127C166.212 227.407 164.748 228.609 162.804 229.731C160.86 230.854 159.088 231.52 157.488 231.731L103.029 137.406Z" fill="#7B3FE4"/>
<path d="M106.375 135.637L161.297 230.764" stroke="#FFC55A" stroke-width="0.280212" stroke-linecap="square"/>
<path d="M109.773 133.674L164.695 228.801" stroke="#FFC55A" stroke-width="0.280212" stroke-linecap="square"/>
</g>
<path d="M61.3672 69.0723V205.256" stroke="#7B3FE4" stroke-width="0.840638" stroke-linecap="round"/>
</g>

</svg>
