<svg xmlns="http://www.w3.org/2000/svg" width="15" height="16" fill="none" viewBox="0 0 15 16">
    <path fill="#7A7C89" fill-rule="evenodd" d="M7.5 15.5c4.142 0 7.5-3.358 7.5-7.5C15 3.858 11.642.5 7.5.5 3.358.5 0 3.858 0 8c0 4.142 3.358 7.5 7.5 7.5zm.29-9.501H6.6c-.538 0-.975.436-.975.975 0 .538.437.975.975.975h.324v3.575c0 .538.437.975.975.975.539 0 .975-.437.975-.975V7.082c0-.598-.485-1.083-1.083-1.083zm-1.514-1.95c0-.718.582-1.3 1.3-1.3.718 0 1.3.582 1.3 1.3 0 .717-.582 1.3-1.3 1.3-.718 0-1.3-.583-1.3-1.3z" clip-rule="evenodd"/>
</svg>
