<svg xmlns="http://www.w3.org/2000/svg" width="211" height="211" fill="none" viewBox="0 0 211 211">
    <g clip-path="url(#clip0)">
        <mask id="13bodipg9a" width="211" height="211" x="0" y="0" maskUnits="userSpaceOnUse">
            <path fill="#fff" d="M105.501 211c58.188 0 105.36-47.234 105.36-105.5S163.689 0 105.501 0C47.311 0 .141 47.234.141 105.5S47.31 211 105.5 211z"/>
        </mask>
        <g mask="url(#13bodipg9a)">
            <path fill="#fff" d="M105.501 211c58.188 0 105.36-47.234 105.36-105.5S163.689 0 105.501 0C47.311 0 .141 47.234.141 105.5S47.31 211 105.5 211z"/>
        </g>
        <mask id="jz5rb56d7b" width="211" height="211" x="0" y="0" maskUnits="userSpaceOnUse">
            <path fill="#fff" d="M105.501 211c58.188 0 105.36-47.234 105.36-105.5S163.689 0 105.501 0C47.311 0 .141 47.234.141 105.5S47.31 211 105.5 211z"/>
        </mask>
        <g mask="url(#jz5rb56d7b)">
            <path fill="url(#paint0_linear)" d="M105.501 211c58.188 0 105.36-47.234 105.36-105.5S163.689 0 105.501 0C47.311 0 .141 47.234.141 105.5S47.31 211 105.5 211z" opacity=".523"/>
            <path fill="url(#paint1_linear)" d="M105.473 116.42c19.896 0 36.025-16.15 36.025-36.073 0-19.923-16.129-36.074-36.025-36.074-19.897 0-36.026 16.151-36.026 36.074s16.13 36.073 36.026 36.073z"/>
            <path fill="#fff" d="M144.002 83.124H66.945c-5.342 0-9.672 4.336-9.672 9.684v174.333c0 5.348 4.33 9.684 9.672 9.684h77.057c5.341 0 9.671-4.336 9.671-9.684V92.808c0-5.348-4.33-9.684-9.671-9.684z" opacity=".777"/>
            <path fill="#E65B29" d="M144.955 76.96c8.159 0 14.773 6.621 14.776 14.79V268.2c0 8.172-6.615 14.796-14.776 14.796H65.986c-8.16 0-14.775-6.624-14.775-14.796V91.755c0-8.171 6.615-14.795 14.776-14.795h78.968zm-13.862 11.249c-1.085 2.03-3.198 3.299-5.498 3.3H85.369c-2.3-.006-4.412-1.273-5.502-3.3l-2.723-5.066h-10.2c-5.334 0-9.66 4.324-9.67 9.666V267.14c0 5.349 4.33 9.684 9.67 9.684h77.058c5.341 0 9.671-4.335 9.671-9.684V92.827c0-5.349-4.33-9.684-9.671-9.684h-10.204l-2.705 5.066z"/>
            <path fill="#231F20" d="M108.19 170.775v2.389h-3.936v-2.353c-3.192-.52-5.319-2.551-6.188-5.829l3.739-1.049c.676 2.551 1.934 3.551 4.289 3.551 2.239 0 3.739-1 3.739-2.811 0-1.291-.743-2.192-3.806-2.69-4.867-.897-7.352-2.843-7.352-6.331 0-3.138 2.239-5.42 5.579-6.034v-2.242h3.936v2.354c2.686.614 4.477 2.488 5.221 5.487l-3.739 1.005c-.613-2.327-1.643-3.26-3.613-3.26-2.19 0-3.448 1-3.448 2.69 0 1.323 1.066 1.937 4.128 2.551 4.8 1 7.025 2.906 7.025 6.488 0 3.053-2.189 5.344-5.574 6.084z"/>
        </g>
    </g>
    <defs>
        <linearGradient id="paint0_linear" x1="-99.086" x2="211.275" y1="-101.737" y2="210.588" gradientUnits="userSpaceOnUse">
            <stop stop-color="#FAF4EA"/>
            <stop offset="1" stop-color="#FFA600"/>
        </linearGradient>
        <linearGradient id="paint1_linear" x1="69.447" x2="105.554" y1="31.544" y2="116.386" gradientUnits="userSpaceOnUse">
            <stop stop-color="#FFDA4E"/>
            <stop offset="1" stop-color="#FFB326"/>
        </linearGradient>
        <clipPath id="clip0">
            <path fill="#fff" d="M0 0H211V211H0z"/>
        </clipPath>
    </defs>
</svg>
