<svg width="56" height="56" viewBox="0 0 56 56" fill="none" xmlns="http://www.w3.org/2000/svg">
<path d="M28 56C43.464 56 56 43.464 56 28C56 12.536 43.464 0 28 0C12.536 0 0 12.536 0 28C0 43.464 12.536 56 28 56Z" fill="#E2E5EE"/>
<path d="M23 24.5C23.8284 24.5 24.5 23.8284 24.5 23C24.5 22.1716 23.8284 21.5 23 21.5C22.1716 21.5 21.5 22.1716 21.5 23C21.5 23.8284 22.1716 24.5 23 24.5Z" fill="#081132"/>
<path d="M24 16H32C36.4183 16 40 19.5817 40 24V32C40 36.4183 36.4183 40 32 40H24C19.5817 40 16 36.4183 16 32V24C16 19.5817 19.5817 16 24 16ZM24 18.5C20.9624 18.5 18.5 20.9624 18.5 24V32C18.5 35.0376 20.9624 37.5 24 37.5H32C35.0376 37.5 37.5 35.0376 37.5 32V24C37.5 20.9624 35.0376 18.5 32 18.5H24Z" fill="#081132"/>
<path d="M18.4982 34.7695L25.266 28.0018C24.2897 27.0255 22.7068 27.0255 21.7305 28.0018L16.7305 33.0018L18.4982 34.7695Z" fill="#081132"/>
<path d="M25.9982 31.7695L32.766 25.0018C31.7897 24.0255 30.2068 24.0255 29.2305 25.0018L24.2305 30.0018L25.9982 31.7695Z" fill="#081132"/>
<path d="M21.7598 27.9715L31.0075 37.4957C31.9553 38.4718 33.5149 38.4947 34.491 37.5469C34.4997 37.5385 34.5083 37.53 34.5169 37.5215L25.2691 27.9974C24.3213 27.0213 22.7617 26.9983 21.7856 27.9461C21.7769 27.9545 21.7683 27.963 21.7598 27.9715Z" fill="#081132"/>
<path fill-rule="evenodd" clip-rule="evenodd" d="M24.9434 28.1543L25.1189 30.8793L24.5774 30.88C24.2895 30.6179 23.9069 30.4581 23.4869 30.4581C23.0669 30.4581 22.6843 30.6179 22.3965 30.88L21.8789 30.8793L22.1367 28.1543H24.9434Z" fill="#081132"/>
<path fill-rule="evenodd" clip-rule="evenodd" d="M32.4434 25.1211L32.6189 27.8461L32.0893 27.8468C31.8015 27.5847 31.4189 27.4249 30.9989 27.4249C30.5789 27.4249 30.1963 27.5847 29.9085 27.8468L29.3789 27.8461L29.6367 25.1211H32.4434Z" fill="#081132"/>
<path d="M29.2324 25.0018L37.9788 33.7482L39.7466 31.9804L32.768 25.0018C31.7916 24.0255 30.2087 24.0255 29.2324 25.0018Z" fill="#081132"/>
</svg>
