<svg width="36" height="36" viewBox="0 0 36 36" fill="none" xmlns="http://www.w3.org/2000/svg">
<rect width="36" height="36" fill="#E75A2B"/>
<path fill-rule="evenodd" clip-rule="evenodd" d="M26.7724 18.2855C26.8117 18.182 26.8237 18.0702 26.8071 17.9608C26.7542 17.6097 26.4271 17.3681 26.0765 17.4212L24.5765 17.6423L24.3794 18.7581L25.1385 18.6456C25.1768 18.6399 25.216 18.6448 25.2517 18.6597C25.3608 18.705 25.4125 18.8304 25.3672 18.9397L25.1249 19.525C25.0969 19.5925 25.0366 19.641 24.9649 19.6538L24.197 19.7907L23.9996 20.9079L25.4707 20.6457C25.6928 20.6061 25.8779 20.4526 25.9581 20.2414L26.7724 18.2855ZM22.2479 10.9283L21.9797 12.217C21.9648 12.3019 21.9628 12.3887 21.9737 12.4743C22.0338 12.9438 22.4626 13.2758 22.9314 13.2156L24.4521 13.0205L24.6234 12.0511L24.626 12.0355C24.655 11.8546 24.6311 11.677 24.5656 11.5188L23.3447 11.6876L23.4919 10.9283H22.2479ZM25.4989 11.3898L27.6916 11.0866C27.8402 11.066 27.9671 10.969 28.0262 10.8308L28.3716 10.0227C28.4336 9.87764 28.3665 9.70973 28.2218 9.64762C28.1791 9.62927 28.1325 9.62168 28.0861 9.62551L23.6739 9.99025L23.672 10H22.441L22.6096 9.19004C22.6772 8.80443 22.9971 8.51374 23.3869 8.48371L29.6323 8.00257C30.1036 7.96626 30.5151 8.31948 30.5513 8.79151C30.561 8.91776 30.5427 9.04459 30.4976 9.16289L29.3958 11.9302C29.2833 12.2254 29.0178 12.4347 28.7049 12.4748L25.4148 12.897L25.5356 12.213C25.5856 11.9297 25.5697 11.65 25.4989 11.3898ZM24.3242 13.7447L24.1517 13.7663C23.8748 13.8009 23.6519 14.0107 23.6003 14.2854L23.2278 16.2675C23.2148 16.3366 23.2133 16.4075 23.2232 16.4771C23.2633 16.759 23.4803 16.972 23.7457 17.0195L24.3242 13.7447ZM24.7052 16.9137L27.1304 16.5636C27.3617 16.5306 27.5568 16.3744 27.6398 16.1557L28.4243 14.1838C28.4616 14.0856 28.4743 13.9798 28.4613 13.8756C28.4174 13.5233 28.0966 13.2733 27.7448 13.3173L25.2862 13.6245L25.0992 14.6832L26.4507 14.5143C26.4874 14.5097 26.5247 14.5147 26.5589 14.5289C26.668 14.5742 26.7198 14.6995 26.6746 14.8088L26.4198 15.4258C26.3909 15.4957 26.3275 15.5451 26.2528 15.5559L24.9107 15.7505L24.7052 16.9137ZM23.6105 17.7848L23.3176 17.8279C23.0478 17.8688 22.8332 18.0761 22.7827 18.3447L22.414 20.3062C22.3996 20.3827 22.3992 20.4612 22.4128 20.5378C22.4674 20.8447 22.7309 21.0617 23.0305 21.068L23.6105 17.7848Z" fill="#FFC55A"/>
<path d="M15.0173 10.9277H11.3918C10.929 10.9277 10.5329 11.2605 10.4523 11.7172L8.01477 25.5153C7.92291 26.0353 8.26909 26.5314 8.78797 26.6235C8.84288 26.6332 8.89853 26.6381 8.95429 26.6381H12.5794C13.0421 26.6381 13.4381 26.3055 13.5189 25.849L14.2538 21.6979C14.2861 21.5153 14.4445 21.3823 14.6296 21.3823H16.9593C17.1701 21.3823 17.341 21.5535 17.341 21.7647C17.341 21.7871 17.339 21.8095 17.3351 21.8315L16.683 25.515C16.591 26.0349 16.9369 26.5312 17.4558 26.6234C17.5108 26.6332 17.5666 26.6381 17.6225 26.6381H21.2478C21.7106 26.6381 22.1066 26.3053 22.1873 25.8486L24.6248 12.0505C24.7167 11.5306 24.3705 11.0344 23.8516 10.9424C23.7967 10.9326 23.741 10.9277 23.6853 10.9277H20.0603C19.598 10.9277 19.2022 11.2599 19.121 11.716L18.4059 15.735C18.3734 15.9174 18.2151 16.0503 18.0301 16.0503H15.7008C15.4901 16.0503 15.3192 15.879 15.3192 15.6678C15.3192 15.6453 15.3212 15.6228 15.3251 15.6007L15.9567 12.0517C16.0492 11.5319 15.7036 11.0353 15.1848 10.9426C15.1296 10.9327 15.0735 10.9277 15.0173 10.9277Z" fill="white"/>
</svg>
