<svg xmlns="http://www.w3.org/2000/svg" width="16" height="16" fill="none" viewBox="0 0 16 16">
    <path fill="#FF4B40" fill-rule="evenodd" d="M16 8c0 4.418-3.582 8-8 8s-8-3.582-8-8 3.582-8 8-8 8 3.582 8 8zm-9.4.578c0 .638.517 1.155 1.156 1.155h.464c.639 0 1.156-.517 1.156-1.155v-4.39c0-.767-.621-1.388-1.388-1.388-.767 0-1.388.621-1.388 1.388v4.39zM7.987 13.2c-.766 0-1.387-.62-1.387-1.387 0-.766.62-1.386 1.387-1.386.765 0 1.386.62 1.386 1.386 0 .766-.62 1.387-1.386 1.387z" clip-rule="evenodd"/>
</svg>
