<svg width="17" height="20" viewBox="0 0 17 20" fill="none" xmlns="http://www.w3.org/2000/svg">
<path d="M-1.88611e-07 11.2835C0.00275897 12.5431 0.270476 13.7871 0.784795 14.9303C1.29911 16.0735 2.04787 17.089 2.97975 17.9069C3.91162 18.7249 5.00457 19.3261 6.18368 19.6694C7.36278 20.0126 8.60015 20.0897 9.81097 19.8955C11.0218 19.7012 12.1774 19.2402 13.1987 18.5439C14.2199 17.8477 15.0825 16.9327 15.7275 15.8617C16.3725 14.7907 16.7845 13.5891 16.9354 12.3392C17.0862 11.0892 16.9723 9.82051 16.6014 8.62005C16.5701 8.50428 16.5166 8.39609 16.4441 8.30182C16.3716 8.20754 16.2815 8.12906 16.1792 8.07097C16.0768 8.01288 15.9642 7.97634 15.848 7.96349C15.7317 7.95064 15.6142 7.96173 15.5021 7.99613C15.3901 8.03052 15.2859 8.08752 15.1955 8.16379C15.1052 8.24007 15.0305 8.33409 14.9759 8.44036C14.9213 8.54663 14.8879 8.66301 14.8776 8.78271C14.8673 8.90241 14.8803 9.02303 14.9159 9.1375C15.2382 10.1922 15.314 11.3102 15.1371 12.4007C14.9602 13.4912 14.5356 14.5235 13.8978 15.4137C13.2121 16.3614 12.302 17.113 11.2538 17.5971C10.2057 18.0811 9.05445 18.2815 7.90969 18.1791C6.76493 18.0767 5.66471 17.6749 4.71371 17.012C3.76271 16.3491 2.99257 15.4471 2.47656 14.3919C1.96056 13.3366 1.71585 12.1632 1.76573 10.9833C1.81561 9.80343 2.15841 8.65628 2.76152 7.65102C3.36463 6.64575 4.20798 5.81582 5.21134 5.24019C6.2147 4.66455 7.34468 4.36237 8.49376 4.36238H10.7234L9.74848 5.36456C9.66491 5.44808 9.59832 5.54783 9.55259 5.65803C9.50686 5.76822 9.48289 5.88666 9.48207 6.00646C9.48126 6.12626 9.50362 6.24503 9.54785 6.35587C9.59208 6.46671 9.6573 6.56741 9.73973 6.65213C9.82215 6.73684 9.92014 6.80387 10.028 6.84932C10.1358 6.89478 10.2514 6.91776 10.368 6.91692C10.4845 6.91608 10.5997 6.89144 10.707 6.84443C10.8142 6.79742 10.9112 6.72898 10.9925 6.64309L13.4683 4.09787C13.5093 4.05561 13.5461 4.00932 13.5783 3.95966C13.5934 3.93643 13.6039 3.91125 13.6167 3.88697C13.6323 3.86014 13.6464 3.83248 13.6591 3.8041C13.6704 3.77303 13.68 3.74134 13.6878 3.70917C13.6948 3.68439 13.7042 3.66079 13.7091 3.63525C13.7206 3.5769 13.7265 3.51753 13.7267 3.45799V3.45799C13.7265 3.39845 13.7206 3.33908 13.7091 3.28073C13.7042 3.25518 13.6948 3.23159 13.6878 3.20681C13.6749 3.1436 13.6508 3.08336 13.6167 3.0291C13.6039 3.00482 13.5934 2.97964 13.5783 2.9564C13.5461 2.90675 13.5093 2.86046 13.4683 2.8182L10.9925 0.272977C10.9112 0.18727 10.8141 0.119008 10.707 0.0721517C10.5998 0.0252951 10.4846 0.000776629 10.3682 1.81531e-05C10.2517 -0.000740323 10.1363 0.0222764 10.0285 0.0677333C9.92078 0.11319 9.8229 0.180182 9.74054 0.264824C9.65819 0.349465 9.59301 0.450071 9.54878 0.560804C9.50455 0.671538 9.48216 0.790196 9.48289 0.909894C9.48363 1.02959 9.50749 1.14795 9.55308 1.2581C9.59867 1.36825 9.66509 1.46799 9.74848 1.55156L10.7234 2.55405H8.49376C6.24188 2.5566 4.08293 3.47712 2.49058 5.11366C0.898237 6.7502 0.00253791 8.96909 -1.88611e-07 11.2835V11.2835Z" fill="#888BAA"/>
</svg>
