<svg xmlns="http://www.w3.org/2000/svg" width="228" height="94" fill="none" viewBox="0 0 228 94">
    <mask id="i6zdyohzja" width="228" height="94" x="0" y="0" maskUnits="userSpaceOnUse">
        <path fill="#fff" d="M209 0H19C8.507 0 0 7.081 0 15.816v62.367C0 86.92 8.507 94 19 94h190c10.493 0 19-7.081 19-15.817V15.816C228 7.081 219.493 0 209 0z"/>
    </mask>
    <g mask="url(#i6zdyohzja)">
        <path fill="#fff" d="M208.083 0H18.917C8.469 0 0 7.081 0 15.816v62.367C0 86.92 8.47 94 18.917 94h189.166C218.531 94 227 86.919 227 78.183V15.816C227 7.081 218.531 0 208.083 0z"/>
    </g>
    <mask id="rak9o20lyb" width="228" height="94" x="0" y="0" maskUnits="userSpaceOnUse">
        <path fill="#fff" d="M209 0H19C8.507 0 0 7.081 0 15.816v62.367C0 86.92 8.507 94 19 94h190c10.493 0 19-7.081 19-15.817V15.816C228 7.081 219.493 0 209 0z"/>
    </mask>
    <g mask="url(#rak9o20lyb)">
        <path fill="url(#paint0_linear)" d="M209 0H19C8.507 0 0 7.081 0 15.816v62.367C0 86.92 8.507 94 19 94h190c10.493 0 19-7.081 19-15.817V15.816C228 7.081 219.493 0 209 0z" opacity=".278"/>
        <path fill="#2B2B2B" d="M136.057 69.924c.805-4.318 2.851-15.244-4.043-15.744-1.889-.122-3.575 1.361-3.492 1.644.359 1.275-.846-3.018-2.847-4.058-.656-.35-1.409-.47-2.139-.338-1.064.232-1.49 1.027-1.741.892-.444-.238.702-2.812 1.47-5.855.768-3.042 1.635-6.3.357-8.594-.217-.428-.97-1.796-2.418-2.237-1.795-.55-3.864.406-5.282 2.285-2.545 3.396-3.843 10.131-5.124 14.135-.167-.245-.341-.493-.522-.731-.821-1.16-1.837-2.17-3.001-2.98-3.177-2.099-5.73.847-5.804 3.89-.065 2.7 1.07 5.41 1.716 7.936 1.2 4.681 2.183 9.352.952 14.152-.017.076-7.082 27.713-11.145 33.825-1.469 2.113-2.463 4.617-4.14 6.567 9.641 4.733 19.43 7.313 30.086 8.546 8.761-16.95 13.571-34.375 17.117-53.335z"/>
        <path stroke="#FFC55A" stroke-linecap="round" stroke-width=".786" d="M114.252 62.405c-.462-3.83-1.761-7.507-3.805-10.769M121.28 53.198c-1.518 2.657-2.876 5.9-2.956 9-.045 1.753.296 4.283 1.766 5.476 1.182.956 2.707.644 3.865-.182 1.36-.968 2.005-2.562 2.484-4.104.69-2.237 1.259-4.515 1.739-6.807"/>
        <path stroke="#FFC55A" stroke-linecap="round" stroke-width=".786" d="M128.179 56.586c-.843 2.515-1.415 5.113-1.706 7.75-.279 2.398-.67 5.77 2.073 6.901 4.921 2.03 6.816-5.866 7.112-9.169"/>
        <path fill="#B87200" d="M109.348 51.706c9.494-3.862 14.088-14.722 10.261-24.257-3.826-9.535-14.624-14.134-24.118-10.273-9.494 3.862-14.088 14.722-10.262 24.257 3.827 9.535 14.625 14.135 24.119 10.273z"/>
        <path fill="url(#paint1_linear)" d="M107.078 52.833c9.494-3.861 14.088-14.722 10.261-24.257-3.826-9.535-14.624-14.134-24.118-10.272-9.494 3.861-14.088 14.722-10.262 24.257 3.827 9.535 14.625 14.134 24.119 10.272z"/>
        <path fill="#FFEECF" d="M103.934 33.388l.537 2.553c-.219.084-.472.004-.601-.203-.032-.051-.055-.108-.067-.168l-.304-1.532c-.042-.21.053-.424.236-.533l.199-.117zm2.36-.812c.043.075.067.16.069.246l-.019 1.659c.004.177-.085.343-.234.437l-.986.622-.183-.87.515-.324c.048-.03.078-.083.078-.14l.005-.496c.001-.093-.073-.169-.165-.17-.03 0-.06.008-.086.024l-.516.304-.182-.867 1.019-.602c.238-.141.544-.062.685.177zm-3.021-2.33l.536 2.547c-.206.044-.425-.047-.536-.24-.027-.048-.047-.1-.058-.154l-.308-1.548c-.042-.214.058-.432.247-.539l.119-.067zm3.026-1.121c.04.072.061.152.063.234l.008 1.662c.003.183-.092.354-.25.446l-1.65.967-.19-.905.913-.535c.051-.03.082-.085.083-.144l.004-.523c.001-.092-.073-.168-.165-.169-.029 0-.057.007-.082.021l-.927.52-.173-.823 1.686-.946c.241-.135.546-.048.68.195zm-4.448-.68l.115.596.833-.482c.094.095.163.217.195.357l.002.012.158.754-1.041.59c-.321.18-.728.066-.908-.257-.033-.06-.056-.123-.07-.189l-.182-1.015.898-.365zm4.477-3.625c.044.09.068.186.07.286l.01 2.332c.004.247-.126.477-.341.598l-2.254 1.274-.111-.533c-.046-.22-.139-.418-.266-.586l1.495-.864c.101-.059.165-.167.167-.284l.014-.688c.003-.124-.094-.226-.217-.229-.036 0-.072.008-.104.024l-3.081 1.562.001.007-.889.361-.114-.636c-.063-.3.083-.605.356-.741l4.371-2.185c.33-.165.73-.03.893.302z"/>
        <path fill="#E75A2B" d="M95.743 30.933L93.126 32c-.334.136-.523.494-.449.849l2.256 10.728c.085.404.48.662.88.577.043-.01.085-.022.125-.039l2.618-1.065c.334-.136.523-.493.448-.849l-.677-3.228c-.03-.142.046-.285.18-.339l1.681-.684c.153-.062.326.012.387.165.007.016.012.033.015.05l.602 2.864c.084.405.479.663.88.578.043-.01.084-.022.125-.039l2.617-1.065c.335-.136.524-.494.449-.849l-2.256-10.728c-.085-.404-.479-.663-.881-.577-.042.01-.084.022-.124.038l-2.617 1.066c-.334.135-.523.493-.45.848l.654 3.126c.03.142-.046.285-.18.339l-1.681.684c-.152.062-.326-.012-.387-.165-.007-.016-.012-.033-.015-.05l-.577-2.761c-.085-.404-.479-.663-.88-.578-.043.009-.085.022-.126.038z"/>
        <path fill="#2B2B2B" d="M136.027 69.881c.801-4.318 2.838-15.245-4.054-15.75-1.889-.124-3.573 1.358-3.49 1.641.36 1.276-.848-3.019-2.85-4.061-.655-.35-1.408-.47-2.138-.34-1.063.232-1.489 1.027-1.74.892-.444-.24-2.376 2.574-6.226 4.867-1.974 1.176-4.334-6.5-4.767-5.142-.167-.246-.342-.494-.523-.732-.822-1.162-1.838-2.171-3.003-2.983-3.177-2.102-5.727.843-5.799 3.885-.062 2.701 1.074 5.413 1.722 7.94 1.204 4.683 2.19 9.356.963 14.156-.016.076-7.058 27.713-11.115 33.823-1.466 2.113-7.839 12.444-9.514 14.393 9.642 4.742 25.357.255 36.011 1.497 8.745-16.947 12.993-35.125 16.523-54.086z"/>
        <path stroke="#FFC55A" stroke-linecap="round" stroke-width=".786" d="M114.28 62.618c-.397-3.835-1.634-7.535-3.622-10.833M121.451 53.046c-1.516 2.656-2.871 5.898-2.948 8.999-.044 1.753.299 4.284 1.77 5.478 1.182.958 2.706.646 3.863-.178 1.359-.968 2.003-2.562 2.481-4.104.687-2.236 1.254-4.515 1.733-6.806"/>
        <path stroke="#FFC55A" stroke-linecap="round" stroke-width=".786" d="M128.35 56.545c-.841 2.514-1.41 5.113-1.699 7.75-.277 2.397-.666 5.77 2.078 6.903 4.921 2.033 6.809-5.862 7.103-9.164"/>
        <path fill="url(#paint2_linear)" d="M-8.245 58.992c21.713 0 39.316-19.519 39.316-43.596C31.07-8.682 13.468-28.2-8.245-28.2S-47.561-8.682-47.561 15.396c0 24.077 17.603 43.596 39.316 43.596z"/>
        <path fill="url(#paint3_linear)" d="M239.602 63.425c37.505 0 67.908-30.225 67.908-67.51 0-37.286-30.403-67.511-67.908-67.511s-67.909 30.225-67.909 67.51c0 37.286 30.404 67.511 67.909 67.511z" opacity=".7"/>
        <path fill="url(#paint4_linear)" d="M-50.094 92.962c-3.384 35.448 19.97 67.204 52.164 70.93 32.192 3.726 61.033-21.99 64.416-57.438 3.384-35.448-19.97-67.205-52.163-70.93-32.193-3.726-61.034 21.99-64.417 57.438z" opacity=".455"/>
        <path fill="url(#paint5_linear)" d="M160.57 84.276c-3.26 30.775 19.24 58.344 50.255 61.579 31.015 3.234 58.8-19.091 62.06-49.866 3.26-30.774-19.24-58.344-50.255-61.578-31.015-3.235-58.8 19.09-62.06 49.865z" opacity=".504"/>
    </g>
    <path fill="#FFF4E0" fill-rule="evenodd" d="M112.137 19.937c-.281.368-.577.817-.844 1.354-.644 1.289-.834 2.501-.889 3.325.013-.732-.071-2.072-.833-3.44-.285-.514-.606-.922-.9-1.239.371-.443.897-1.176 1.273-2.204.37-1.006.451-1.895.46-2.475.074.64.227 1.463.558 2.376.355.98.8 1.75 1.175 2.303z" clip-rule="evenodd"/>
    <path fill="#FFF7E9" fill-rule="evenodd" d="M86.232 38.101c-.281.368-.577.817-.845 1.354-.643 1.289-.834 2.502-.888 3.325.013-.732-.071-2.072-.833-3.44-.285-.514-.606-.922-.9-1.239.371-.443.896-1.176 1.273-2.203.37-1.007.45-1.896.46-2.476.074.64.227 1.463.558 2.376.355.98.8 1.75 1.175 2.303z" clip-rule="evenodd"/>
    <path fill="#FFF4E0" fill-rule="evenodd" d="M73.022 31.006c-.46.584-.942 1.298-1.378 2.15-1.05 2.047-1.36 3.973-1.45 5.28.021-1.162-.115-3.29-1.358-5.463-.466-.815-.99-1.465-1.47-1.967.607-.704 1.463-1.868 2.078-3.5.603-1.599.735-3.01.75-3.931.12 1.016.371 2.323.91 3.773.58 1.558 1.305 2.78 1.918 3.658z" clip-rule="evenodd"/>
    <path fill="#E35C26" fill-rule="evenodd" d="M101.556 13.699c-.193.267-.395.593-.578.982-.44.935-.571 1.815-.608 2.412.008-.532-.049-1.503-.57-2.496-.195-.372-.415-.669-.616-.898.254-.322.614-.854.871-1.599.253-.73.309-1.375.315-1.796.05.465.155 1.062.381 1.724.244.711.548 1.27.805 1.67zM78.387 10.396c-.192.267-.395.593-.578.982-.44.935-.57 1.815-.608 2.412.009-.531-.048-1.503-.57-2.495-.195-.373-.414-.67-.615-.9.254-.32.613-.852.87-1.598.254-.73.31-1.375.315-1.795.05.464.156 1.06.382 1.723.243.712.547 1.27.804 1.67zM89.984 5.364c-.192.267-.395.593-.578.982-.44.935-.57 1.815-.607 2.412.008-.531-.049-1.503-.57-2.495-.196-.373-.415-.67-.616-.9.254-.32.613-.852.871-1.598.253-.73.308-1.375.315-1.795.05.464.155 1.06.38 1.723.244.712.548 1.27.805 1.67z" clip-rule="evenodd"/>
    <defs>
        <linearGradient id="paint0_linear" x1="358.62" x2="47.391" y1="26.981" y2="177.429" gradientUnits="userSpaceOnUse">
            <stop stop-color="#FAF4EA"/>
            <stop offset="1" stop-color="#FFA600"/>
        </linearGradient>
        <linearGradient id="paint1_linear" x1="73.586" x2="107.246" y1="19.203" y2="52.664" gradientUnits="userSpaceOnUse">
            <stop stop-color="#FFDA4E"/>
            <stop offset="1" stop-color="#FFB326"/>
        </linearGradient>
        <linearGradient id="paint2_linear" x1="-71.047" x2="36.104" y1="-70.241" y2="48.123" gradientUnits="userSpaceOnUse">
            <stop stop-color="#FAF4EA"/>
            <stop offset="1" stop-color="#FFA600"/>
        </linearGradient>
        <linearGradient id="paint3_linear" x1="107.738" x2="306.354" y1="-133.657" y2="63.044" gradientUnits="userSpaceOnUse">
            <stop stop-color="#FAF4EA"/>
            <stop offset="1" stop-color="#FFA600"/>
        </linearGradient>
        <linearGradient id="paint4_linear" x1="113.127" x2="-60.054" y1="-12.372" y2="140.804" gradientUnits="userSpaceOnUse">
            <stop stop-color="#FAF4EA"/>
            <stop offset="1" stop-color="#FFA600"/>
        </linearGradient>
        <linearGradient id="paint5_linear" x1="337.903" x2="156.07" y1="-4.576" y2="140.351" gradientUnits="userSpaceOnUse">
            <stop stop-color="#FAF4EA"/>
            <stop offset="1" stop-color="#FFA600"/>
        </linearGradient>
    </defs>
</svg>
