<?xml version="1.0" encoding="UTF-8"?>
<svg xmlns="http://www.w3.org/2000/svg" xmlns:xlink="http://www.w3.org/1999/xlink" width="20pt" height="22pt" viewBox="0 0 20 22" version="1.1">
<g id="surface1">
<path style=" stroke:none;fill-rule:nonzero;fill:rgb(0%,0%,0%);fill-opacity:1;" d="M 16.460938 2.71875 C 16.371094 2.71875 16.28125 2.695312 16.203125 2.652344 C 14.070312 1.5625 12.226562 1.101562 10.015625 1.101562 C 7.816406 1.101562 5.726562 1.617188 3.824219 2.652344 C 3.558594 2.792969 3.226562 2.695312 3.070312 2.429688 C 2.925781 2.167969 3.027344 1.824219 3.292969 1.683594 C 5.359375 0.570312 7.625 0 10.015625 0 C 12.382812 0 14.449219 0.515625 16.714844 1.671875 C 16.992188 1.816406 17.09375 2.144531 16.949219 2.410156 C 16.847656 2.605469 16.660156 2.71875 16.460938 2.71875 Z M 0.558594 8.492188 C 0.449219 8.492188 0.335938 8.460938 0.238281 8.394531 C -0.0195312 8.21875 -0.0742188 7.875 0.105469 7.621094 C 1.203125 6.082031 2.605469 4.871094 4.269531 4.027344 C 7.757812 2.242188 12.226562 2.234375 15.726562 4.015625 C 17.394531 4.863281 18.792969 6.0625 19.894531 7.589844 C 20.070312 7.832031 20.015625 8.183594 19.757812 8.359375 C 19.503906 8.535156 19.160156 8.480469 18.980469 8.226562 C 17.980469 6.84375 16.714844 5.753906 15.214844 4.992188 C 12.027344 3.378906 7.949219 3.378906 4.769531 5.003906 C 3.257812 5.773438 1.992188 6.875 0.992188 8.261719 C 0.902344 8.414062 0.738281 8.492188 0.558594 8.492188 Z M 7.503906 21.769531 C 7.359375 21.769531 7.214844 21.714844 7.113281 21.605469 C 6.148438 20.648438 5.625 20.03125 4.882812 18.699219 C 4.113281 17.347656 3.714844 15.695312 3.714844 13.925781 C 3.714844 10.660156 6.535156 7.996094 10.003906 7.996094 C 13.46875 7.996094 16.292969 10.660156 16.292969 13.925781 C 16.292969 14.234375 16.046875 14.476562 15.738281 14.476562 C 15.425781 14.476562 15.179688 14.234375 15.179688 13.925781 C 15.179688 11.265625 12.859375 9.097656 10.003906 9.097656 C 7.148438 9.097656 4.824219 11.265625 4.824219 13.925781 C 4.824219 15.511719 5.179688 16.972656 5.859375 18.160156 C 6.570312 19.425781 7.058594 19.964844 7.914062 20.824219 C 8.125 21.042969 8.125 21.382812 7.914062 21.605469 C 7.792969 21.714844 7.648438 21.769531 7.503906 21.769531 Z M 15.46875 19.734375 C 14.148438 19.734375 12.980469 19.402344 12.027344 18.753906 C 10.371094 17.644531 9.382812 15.839844 9.382812 13.925781 C 9.382812 13.617188 9.625 13.375 9.9375 13.375 C 10.25 13.375 10.492188 13.617188 10.492188 13.925781 C 10.492188 15.476562 11.292969 16.941406 12.648438 17.84375 C 13.4375 18.371094 14.359375 18.621094 15.46875 18.621094 C 15.738281 18.621094 16.179688 18.589844 16.625 18.511719 C 16.925781 18.457031 17.214844 18.65625 17.269531 18.964844 C 17.324219 19.261719 17.125 19.546875 16.816406 19.601562 C 16.179688 19.722656 15.625 19.734375 15.46875 19.734375 Z M 13.238281 22 C 13.191406 22 13.136719 21.988281 13.09375 21.976562 C 11.324219 21.492188 10.171875 20.84375 8.960938 19.667969 C 7.402344 18.140625 6.546875 16.105469 6.546875 13.925781 C 6.546875 12.144531 8.082031 10.691406 9.96875 10.691406 C 11.859375 10.691406 13.394531 12.144531 13.394531 13.925781 C 13.394531 15.101562 14.425781 16.058594 15.703125 16.058594 C 16.980469 16.058594 18.015625 15.101562 18.015625 13.925781 C 18.015625 9.777344 14.402344 6.414062 9.960938 6.414062 C 6.804688 6.414062 3.914062 8.152344 2.613281 10.847656 C 2.179688 11.738281 1.960938 12.78125 1.960938 13.925781 C 1.960938 14.785156 2.035156 16.136719 2.703125 17.898438 C 2.816406 18.183594 2.671875 18.503906 2.382812 18.601562 C 2.09375 18.710938 1.769531 18.558594 1.671875 18.28125 C 1.125 16.839844 0.859375 15.410156 0.859375 13.925781 C 0.859375 12.605469 1.113281 11.40625 1.613281 10.363281 C 3.09375 7.292969 6.371094 5.300781 9.960938 5.300781 C 15.015625 5.300781 19.125 9.164062 19.125 13.914062 C 19.125 15.695312 17.59375 17.148438 15.703125 17.148438 C 13.816406 17.148438 12.28125 15.695312 12.28125 13.914062 C 12.28125 12.738281 11.25 11.78125 9.96875 11.78125 C 8.691406 11.78125 7.660156 12.738281 7.660156 13.914062 C 7.660156 15.796875 8.394531 17.554688 9.738281 18.875 C 10.792969 19.910156 11.804688 20.480469 13.371094 20.910156 C 13.671875 20.988281 13.835938 21.296875 13.757812 21.582031 C 13.703125 21.835938 13.46875 22 13.238281 22 Z M 13.238281 22 "/>
</g>
</svg>
