<svg xmlns="http://www.w3.org/2000/svg" width="24" height="24" fill="none" viewBox="0 0 24 24">
    <path fill="#2B2B2B" fill-rule="evenodd" d="M19.171.753c.956-.04 1.882.311 2.576.966l-.857.91.915-.851c.329.353.583.77.75 1.222.166.452.242.934.223 1.416-.019.481-.132.955-.333 1.394-.197.427-.474.812-.817 1.134l-9.846 10.04c-.148.15-.33.261-.533.322L6.804 18.64c-.437.132-.911.014-1.237-.307-.325-.32-.449-.794-.324-1.233l1.3-4.558c.057-.2.163-.381.307-.53L16.702 1.91c.637-.697 1.523-1.116 2.47-1.156zm.83 2.757c-.206-.18-.465-.27-.726-.26-.273.012-.538.135-.734.352l-.034.036-9.646 9.893-.587 2.057 1.949-.584 9.641-9.832c.015-.016.031-.031.048-.046.108-.1.198-.222.261-.36.064-.14.1-.292.107-.448.006-.156-.018-.31-.072-.455-.048-.131-.118-.25-.206-.353zM.75 22c0-.69.56-1.25 1.25-1.25h20c.69 0 1.25.56 1.25 1.25s-.56 1.25-1.25 1.25H2c-.69 0-1.25-.56-1.25-1.25z" clip-rule="evenodd"/>
</svg>
