<svg xmlns="http://www.w3.org/2000/svg" width="22" height="22" fill="none" viewBox="0 0 22 22">
    <path fill="#2B2B2B" stroke="#2B2B2B" stroke-width=".3" d="M19.996 4.482h-4.1c-.229-.983-.842-1.866-1.735-2.5C13.27 1.346 12.151 1 10.998 1s-2.27.347-3.164.981c-.893.635-1.506 1.518-1.735 2.5h-4.1c-.264 0-.519.092-.706.256C1.105 4.9 1 5.12 1 5.35c0 .23.105.452.293.615.187.163.442.255.707.255h1v11.568c.001.851.391 1.667 1.083 2.269.692.602 1.63.94 2.609.942h8.612c.978-.002 1.917-.34 2.609-.942.692-.602 1.081-1.418 1.083-2.269V6.221h1c.265 0 .52-.092.707-.255.187-.163.293-.384.293-.615 0-.23-.106-.451-.293-.614-.188-.164-.442-.255-.707-.255zm-8.998-1.739c.618.002 1.22.17 1.724.482.504.311.885.75 1.091 1.257h-5.63c.205-.507.587-.946 1.09-1.257.504-.311 1.107-.48 1.725-.482zm5.999 15.046c-.002.39-.181.764-.498 1.04-.317.275-.747.43-1.195.432H6.692c-.449-.001-.878-.157-1.195-.433-.317-.275-.496-.649-.498-1.039V6.221h11.998v11.568z"/>
    <path fill="#2B2B2B" stroke="#2B2B2B" stroke-width=".3" d="M9.26 8.828c-.23 0-.452.092-.615.255-.163.163-.254.384-.254.614v6.086c0 .23.091.452.254.615.163.163.384.255.615.255.23 0 .452-.092.615-.255.163-.163.254-.384.254-.615V9.698c0-.231-.091-.452-.254-.615-.163-.163-.384-.255-.615-.255zM12.737 8.828c-.231 0-.452.092-.615.255-.163.163-.255.384-.255.614v6.086c0 .23.092.452.255.615.163.163.384.255.615.255.23 0 .451-.092.614-.255.163-.163.255-.384.255-.615V9.698c0-.231-.092-.452-.255-.615-.163-.163-.384-.255-.614-.255z"/>
</svg>
