<svg xmlns="http://www.w3.org/2000/svg" width="24" height="24" fill="none" viewBox="0 0 24 24">
    <path fill="#2B2B2B" fill-rule="evenodd" d="M7.472 3.127c.382.575.226 1.35-.35 1.733C5.568 5.893 4.387 7.4 3.758 9.16c-.63 1.76-.674 3.676-.127 5.463.548 1.786 1.657 3.348 3.163 4.452 1.507 1.104 3.329 1.692 5.196 1.675h.022c1.867.017 3.69-.57 5.196-1.675 1.506-1.104 2.615-2.666 3.163-4.452.547-1.787.503-3.703-.127-5.462-.63-1.76-1.81-3.268-3.365-4.301-.576-.382-.732-1.158-.35-1.733.382-.575 1.157-.732 1.733-.35 2.004 1.331 3.525 3.275 4.336 5.542.81 2.266.868 4.734.163 7.036-.705 2.302-2.134 4.314-4.075 5.736-1.938 1.421-4.283 2.178-6.685 2.159-2.402.02-4.747-.738-6.685-2.159-1.94-1.422-3.37-3.434-4.075-5.736-.705-2.302-.648-4.77.163-7.036.81-2.267 2.332-4.21 4.337-5.542.575-.382 1.35-.225 1.732.35z" clip-rule="evenodd"/>
    <path fill="#2B2B2B" fill-rule="evenodd" d="M12 .75c.69 0 1.25.56 1.25 1.25v10c0 .69-.56 1.25-1.25 1.25s-1.25-.56-1.25-1.25V2c0-.69.56-1.25 1.25-1.25z" clip-rule="evenodd"/>
</svg>
