<svg xmlns="http://www.w3.org/2000/svg" width="25" height="25" fill="none" viewBox="0 0 25 25">
    <path fill="#2B2B2B" stroke="#2B2B2B" stroke-width="1.2" d="M11.159 1c-3.492 0-6.35 2.594-6.35 5.757v1.796h-.634C2.429 8.553 1 9.835 1 11.403v9.747C1 22.718 2.429 24 4.175 24h13.65C19.571 24 21 22.718 21 21.15v-9.747c0-1.568-1.429-2.85-3.175-2.85h-.317V6.757C17.508 3.594 14.65 1 11.158 1zm-5.08 5.757c0-2.536 2.286-4.617 5.08-4.617 2.793 0 5.08 2.08 5.08 4.617v1.796H6.078V6.757zm11.746 2.936c1.048 0 1.905.77 1.905 1.71v9.747c0 .94-.857 1.71-1.905 1.71H4.175c-1.048 0-1.905-.77-1.905-1.71v-9.747c0-.94.857-1.71 1.905-1.71h13.65z"/>
    <path fill="#2B2B2B" stroke="#2B2B2B" stroke-width="1.2" d="M11 17.843c.35 0 .635-.286.635-.635v-1.905c0-.35-.286-.635-.635-.635-.35 0-.635.286-.635.635v1.905c0 .349.286.635.635.635z"/>
</svg>
