<svg xmlns="http://www.w3.org/2000/svg" width="20" height="21" fill="none" viewBox="0 0 20 21">
    <path fill="#2B2B2B" fill-rule="evenodd" d="M10.693 14.202c-.454-.454-1.19-.454-1.643 0l-2.372 2.371V8.864c0-.641-.52-1.161-1.161-1.161-.642 0-1.162.52-1.162 1.161v7.71l-2.372-2.372c-.453-.454-1.189-.454-1.643 0-.453.454-.453 1.19 0 1.643l4.192 4.192c.268.268.636.378.985.329.349.049.716-.06.984-.33l4.192-4.19c.454-.455.454-1.19 0-1.644zm4.952-2.69c0 .641-.52 1.162-1.161 1.162-.642 0-1.162-.52-1.162-1.162v-7.71L10.95 6.174c-.454.454-1.19.454-1.643 0-.454-.454-.454-1.19 0-1.643L13.5.339c.268-.268.635-.378.984-.328.35-.05.717.06.985.328l4.192 4.192c.453.454.453 1.19 0 1.643-.454.454-1.19.454-1.643 0l-2.372-2.371v7.709z" clip-rule="evenodd"/>
</svg>
