<svg xmlns="http://www.w3.org/2000/svg" width="22" height="22" fill="none" viewBox="0 0 22 22">
    <path fill="#2B2B2B" stroke="#2B2B2B" stroke-width="1.5" d="M20.51 15.188c-.266 0-.489.222-.489.49v2.049c0 1.269-1.023 2.293-2.291 2.293h-2.225c-.267 0-.49.223-.49.49 0 .268.223.49.49.49h2.225c1.802 0 3.27-1.47 3.27-3.273v-2.05c0-.267-.222-.49-.49-.49zM17.73 1h-2.225c-.267 0-.49.223-.49.49s.223.49.49.49h2.225c1.268 0 2.291 1.024 2.291 2.294v2.383c0 .267.223.49.49.49s.49-.223.49-.49V4.274C21 2.47 19.53 1 17.73 1z"/>
    <path fill="#2B2B2B" stroke="#2B2B2B" d="M15.215 10.754c.333 0 .6-.267.623-.601V8.549c0-.356-.267-.623-.623-.623s-.623.29-.623.623v1.582c0 .356.289.623.623.623zM14.059 15.076c-.801.802-1.87 1.247-2.96 1.247h-.177c-1.113 0-2.158-.445-2.96-1.247-.177-.2-.489-.2-.689 0-.2.178-.2.49 0 .69 1.001 1.003 2.292 1.537 3.649 1.537h.178c1.357 0 2.67-.534 3.648-1.537.2-.178.2-.49 0-.69-.178-.2-.49-.2-.69 0zM9.788 13.718H9.9c1.002 0 1.803-.802 1.803-1.782V8.55c0-.268-.223-.49-.49-.49s-.49.222-.49.49v3.363c0 .467-.378.824-.822.824h-.112c-.267 0-.49.222-.49.49 0 .267.223.49.49.49zM6.494 7.926c-.356 0-.623.29-.623.623v1.582c0 .356.29.623.623.623.356 0 .623-.267.623-.601V8.549c0-.356-.29-.623-.623-.623z"/>
    <path fill="#2B2B2B" stroke="#2B2B2B" stroke-width="1.5" d="M1.51 7.147c.268 0 .49-.223.49-.49V4.274C2 3.004 3.024 1.98 4.292 1.98h2.224c.267 0 .49-.223.49-.49S6.783 1 6.516 1H4.292c-1.802 0-3.27 1.47-3.27 3.274v2.383c0 .267.222.49.489.49zM6.495 20.02H4.27c-1.268 0-2.291-1.024-2.291-2.293v-2.05c0-.267-.223-.49-.49-.49S1 15.41 1 15.678v2.05C1 19.53 2.468 21 4.27 21h2.225c.29 0 .49-.222.49-.49 0-.267-.223-.49-.49-.49z"/>
</svg>
