<svg width="20" height="20" viewBox="0 0 20 20" fill="none" xmlns="http://www.w3.org/2000/svg">
<path fill-rule="evenodd" clip-rule="evenodd" d="M8.96002 0H9V0.000622129C9.67738 0.0217339 10.22 0.577496 10.22 1.26C10.22 1.9425 9.67738 2.49827 9 2.51938V2.52427H5.14573C3.69796 2.52427 2.52432 3.69789 2.52432 5.14563V14.8544C2.52432 16.3021 3.69796 17.4757 5.14573 17.4757H9V17.4806C9.67737 17.5017 10.22 18.0575 10.22 18.74C10.22 19.4225 9.67737 19.9783 9 19.9994V20H8.96001H5.14573C2.30382 20 0 17.6962 0 14.8544V5.14563C0 2.30378 2.30382 0 5.14573 0H8.96002ZM6.52 9.96937C6.52 9.27902 7.07964 8.71937 7.77 8.71937H15.7049L14.6827 7.6972C14.1945 7.20904 14.1945 6.41759 14.6827 5.92943C15.1708 5.44128 15.9623 5.44128 16.4505 5.92943L19.6324 9.11141C20.0169 9.49586 20.0986 10.0684 19.8775 10.5328C19.8174 10.6626 19.7338 10.7843 19.6267 10.8914L16.4447 14.0733C15.9566 14.5615 15.1651 14.5615 14.677 14.0733C14.1888 13.5852 14.1888 12.7937 14.677 12.3056L15.7632 11.2194H7.77C7.07964 11.2194 6.52 10.6597 6.52 9.96937Z" fill="#2B2B2B"/>
</svg>
