<svg xmlns="http://www.w3.org/2000/svg" width="56" height="56" fill="none" viewBox="0 0 56 56">
    <path fill="#F6E9D3" d="M28 56c15.464 0 28-12.536 28-28S43.464 0 28 0 0 12.536 0 28s12.536 28 28 28z"/>
    <path fill="#2B2B2B" d="M19.777 38h15.969c2.634 0 4.776-2.143 4.776-4.777V23.46c0-2.634-2.142-4.777-4.776-4.777H34.06C33.463 17.09 31.937 16 30.18 16h-4.835c-1.758 0-3.285 1.09-3.883 2.683h-1.684c-2.634 0-4.777 2.143-4.777 4.777v9.763C15 35.857 17.143 38 19.777 38zM17.24 23.46c0-1.399 1.137-2.537 2.536-2.537h2.654c.487 0 .903-.35.986-.83l.045-.266c.158-.92.95-1.586 1.882-1.586h4.834c.933 0 1.724.667 1.882 1.586l.045.266c.083.48.499.83.986.83h2.654c1.399 0 2.537 1.138 2.537 2.537v9.763c0 1.399-1.138 2.537-2.537 2.537H19.777c-1.399 0-2.536-1.138-2.536-2.537V23.46z"/>
    <path fill="#2B2B2B" stroke="#2B2B2B" stroke-width=".6" d="M29.895 27.112c-.214-.215-.214-.563 0-.778.206-.205.532-.215.748-.028l.03.028 1.13 1.129c-.013-1.337-.725-2.604-1.926-3.298-1.51-.871-3.416-.62-4.648.613-.215.215-.563.215-.778 0-.215-.214-.215-.563 0-.777 1.584-1.586 4.035-1.909 5.976-.788 1.476.852 2.377 2.377 2.468 4.01l.89-.89c.205-.204.531-.213.747-.027l.03.028c.205.205.215.532.028.748l-.028.03-1.944 1.944c-.205.205-.532.215-.748.028l-.03-.028-1.945-1.944zM31.45 31.222c.216.215.216.563.001.778-1.584 1.586-4.036 1.909-5.977.788-1.475-.852-2.376-2.377-2.467-4.01l-.89.889c-.205.205-.531.214-.748.028l-.03-.028c-.205-.205-.214-.532-.027-.748l.027-.03 1.945-1.944c.205-.206.532-.215.748-.028l.03.027 1.944 1.945c.215.215.215.563 0 .778-.205.205-.531.214-.747.028l-.03-.028-1.13-1.129c.013 1.337.724 2.604 1.926 3.297 1.51.872 3.416.62 4.648-.612.215-.215.563-.215.778 0z"/>
</svg>
