<svg xmlns="http://www.w3.org/2000/svg" width="26" height="20" fill="none" viewBox="0 0 26 20">
    <path fill="#888BAA" fill-rule="evenodd" d="M18.228 2H3.2C2.537 2 2 2.537 2 3.2V4h4.428c.409-.19.864-.295 1.344-.295h11.656V3.2c0-.663-.537-1.2-1.2-1.2zM6.984 6H7v-.014c.209-.175.478-.28.772-.28H22.8c.663 0 1.2.536 1.2 1.2v.723H6.572v-.724c0-.361.16-.685.412-.905zM4.702 6H2v7.096c0 .663.537 1.2 1.2 1.2h1.372v-7.39c0-.315.045-.619.13-.906zm16.726-2.295H22.8c1.768 0 3.2 1.433 3.2 3.2v9.896c0 1.767-1.432 3.2-3.2 3.2H7.772c-1.767 0-3.2-1.433-3.2-3.2v-.505H3.2c-1.767 0-3.2-1.433-3.2-3.2V3.2C0 1.433 1.433 0 3.2 0h15.028c1.768 0 3.2 1.433 3.2 3.2v.505zM6.572 9.63H24V16.8c0 .663-.537 1.2-1.2 1.2H7.772c-.663 0-1.2-.537-1.2-1.2V9.629zM15 15c0-.552.448-1 1-1h1c.552 0 1 .448 1 1s-.448 1-1 1h-1c-.552 0-1-.448-1-1zm5-1c-.552 0-1 .448-1 1s.448 1 1 1h1c.552 0 1-.448 1-1s-.448-1-1-1h-1z" clip-rule="evenodd"/>
</svg>
