<svg xmlns="http://www.w3.org/2000/svg" width="22" height="22" fill="none" viewBox="0 0 22 22">
    <path fill="#888BAA" fill-rule="evenodd" d="M10.21.158C10.46.054 10.729 0 11 0s.54.054.79.158c.25.104.476.256.667.448l.002.002 1.997 1.997c.01.01.023.015.037.016h2.832c.545 0 1.068.216 1.453.601s.602.908.602 1.453v2.832c0 .014.005.027.015.037l1.997 1.998.002.001c.192.19.344.417.448.667.104.25.158.519.158.79s-.054.54-.158.79c-.104.25-.256.476-.448.667l-.002.002-1.997 1.997c-.01.01-.015.023-.015.037v2.832c0 .545-.217 1.067-.602 1.453-.386.385-.908.602-1.453.602h-2.832c-.014 0-.027.005-.037.015l-1.997 1.997-.002.002c-.19.192-.417.344-.667.448-.25.104-.519.158-.79.158s-.54-.054-.79-.158c-.25-.104-.476-.256-.667-.448l-.001-.002-1.998-1.997c-.01-.01-.023-.015-.037-.015H4.675c-.545 0-1.068-.217-1.453-.602s-.601-.908-.601-1.453v-2.832c0-.014-.006-.027-.016-.037L.608 12.46l-.002-.002c-.192-.19-.344-.417-.448-.667C.054 11.54 0 11.271 0 11s.054-.54.158-.79c.104-.25.256-.476.448-.667l.002-.001 1.997-1.998c.01-.01.015-.023.016-.037V4.675c0-.545.216-1.068.601-1.453s.908-.601 1.453-.601h2.832c.014 0 .027-.006.037-.016L9.542.608l.001-.002c.19-.192.417-.344.667-.448zm8.17 7.353h-1V4.675c0-.015-.006-.028-.016-.039-.01-.01-.024-.015-.039-.015h-2.84c-.539-.003-1.055-.217-1.438-.596l-.003-.003-2.005-2.006c-.006-.005-.011-.01-.018-.012C11.014 2.001 11.007 2 11 2c-.007 0-.014.001-.02.004-.008.003-.013.007-.019.012l-.002.003-2.006 2.006c-.383.38-.9.593-1.438.596h-2.84c-.015 0-.028.005-.039.015-.01.01-.015.024-.015.039v2.84c-.003.539-.217 1.055-.596 1.438l-.003.003-2.006 2.005c-.005.006-.01.011-.012.018-.003.007-.004.014-.004.021 0 .007.001.014.004.02.003.008.007.014.012.019l.003.002 2.006 2.006c.38.383.593.9.596 1.438v2.84c0 .015.005.028.015.039.01.01.024.015.039.015h2.84c.539.003 1.055.217 1.438.596l.003.003 2.005 2.006c.006.005.011.01.018.012.007.003.014.004.021.004.007 0 .014-.001.02-.004.008-.003.014-.007.019-.012l.002-.003 2.003-2.003.003-.003c.383-.38.9-.593 1.438-.596h2.84c.015 0 .028-.005.039-.015.01-.01.015-.024.015-.039v-2.84c.003-.539.217-1.055.596-1.438l.003-.003 2.003-2.003.003-.002c.005-.005.01-.011.012-.018.003-.007.004-.014.004-.021 0-.007-.001-.014-.004-.02-.003-.008-.007-.013-.012-.019l-.003-.002-2.003-2.003-.003-.003c-.38-.383-.593-.9-.596-1.438l1-.004z" clip-rule="evenodd"/>
    <path fill="#888BAA" fill-rule="evenodd" d="M11 8.838c-1.194 0-2.162.968-2.162 2.163 0 1.194.968 2.162 2.163 2.162 1.194 0 2.162-.968 2.162-2.162 0-1.195-.968-2.163-2.162-2.163zM6.839 11c0-2.3 1.864-4.163 4.163-4.163 2.299 0 4.162 1.864 4.162 4.163 0 2.299-1.864 4.162-4.162 4.162-2.3 0-4.163-1.864-4.163-4.162z" clip-rule="evenodd"/>
</svg>
