<svg xmlns="http://www.w3.org/2000/svg" width="20" height="20" fill="none" viewBox="0 0 20 20">
    <path fill="#888BAA" d="M18.963 12.709c.545 0 .983.406 1.032.937l.005.101v3.52c-.018 1.454-1.16 2.65-2.584 2.729l-.149.004h-3.514c-.58 0-1.038-.458-1.038-1.038 0-.546.406-.984.937-1.034l.1-.005h3.515c.33 0 .612-.257.653-.577l.005-.081v-3.518c0-.58.458-1.038 1.038-1.038zm-17.926 0c.546 0 .983.406 1.033.937l.005.101v3.518c0 .329.257.612.577.653l.08.006h3.515c.58 0 1.038.457 1.038 1.038 0 .543-.403.983-.922 1.033L6.265 20H2.733c-1.454 0-2.65-1.144-2.729-2.585L0 17.265v-3.518c0-.58.458-1.038 1.037-1.038zM6.265 0c.58 0 1.037.458 1.037 1.038 0 .546-.405.984-.936 1.034l-.1.004H2.732c-.329 0-.611.258-.653.578l-.005.081v3.512c.02.575-.448 1.044-1.02 1.044-.545 0-.983-.406-1.033-.937l-.004-.101V2.735C.018 1.28 1.16.082 2.6.005L2.75 0h3.514zM17.25 0c1.453 0 2.65 1.144 2.728 2.585l.004.15v3.518c0 .58-.457 1.038-1.037 1.038-.546 0-.983-.406-1.033-.937l-.005-.101V2.735c0-.329-.257-.612-.576-.653l-.081-.006h-3.515c-.58 0-1.037-.458-1.037-1.038 0-.546.405-.984.936-1.033l.1-.005h3.516zM6.265.309l.086.005c.367.041.643.344.643.724 0 .41-.32.73-.729.73H2.733l-.098.005c-.482.05-.869.468-.869.962v3.518l-.002.085c-.03.363-.338.644-.709.644-.41 0-.729-.32-.729-.73V2.736l.004-.137C.402 1.326 1.458.308 2.75.308h3.515zm10.985 0l.137.004c1.27.071 2.287 1.128 2.287 2.422v3.518l-.005.086c-.041.367-.344.643-.724.643-.41 0-.729-.32-.729-.73V2.736l-.005-.098c-.05-.482-.468-.87-.961-.87h-3.515l-.086-.004c-.367-.042-.643-.344-.643-.725 0-.41.32-.73.729-.73h3.515zM15.774 10.955H4.229c-.495 0-.883-.389-.883-.884s.388-.883.883-.883h11.545c.494 0 .883.388.883.883s-.407.884-.883.884z"/>
</svg>
