<svg xmlns="http://www.w3.org/2000/svg" width="46" height="46" fill="none" viewBox="0 0 46 46">
    <path fill="#F3F3F8" d="M23 46c12.703 0 23-10.297 23-23S35.703 0 23 0 0 10.297 0 23s10.297 23 23 23z"/>
    <path fill="#888BAA" d="M23.152 28.649c.464-.444.464-1.165 0-1.609-.464-.444-1.217-.444-1.681 0l-2.782 2.664v-9.18c0-.591-.472-1.077-1.075-1.132l-.114-.005c-.656 0-1.189.509-1.189 1.137l.001 9.18-2.783-2.664c-.433-.415-1.118-.442-1.584-.083l-.097.083c-.464.444-.464 1.165 0 1.609l4.812 4.605c.464.444 1.216.444 1.68 0l4.812-4.605zM34.152 17.336c.464.445.464 1.165 0 1.609-.464.444-1.217.444-1.681 0l-2.782-2.664v9.18c0 .591-.472 1.077-1.075 1.132l-.114.005c-.656 0-1.189-.509-1.189-1.137l.001-9.18-2.783 2.664c-.433.415-1.118.442-1.584.083l-.097-.083c-.464-.444-.464-1.164 0-1.609l4.812-4.604c.464-.445 1.216-.445 1.68 0l4.812 4.604z"/>
</svg>
