<svg xmlns="http://www.w3.org/2000/svg" width="140" height="40" viewBox="0 0 151.6 40.9">
    <path fill="#2B2B2B" d="M51.3 33.1V9.2h8.2c2.7 0 4.8.6 6.2 1.6 1.4 1.1 2.1 2.7 2.1 4.9 0 1.1-.3 2.1-.9 2.9-.6.9-1.4 1.5-2.6 2.1 1.3.4 2.3 1 3 2 .7.9 1.1 2.2 1.1 3.5 0 2.2-.7 4-2.2 5.2-1.4 1.2-3.5 1.8-6.2 1.8l-8.7-.1c0 .1 0 0 0 0zm4.1-13.9h4.1c1.3 0 2.3-.3 3-.9s1.1-1.4 1.1-2.5c0-1.2-.3-2.1-1-2.6s-1.7-.8-3.1-.8h-4l-.1 6.8zm0 3.1v7.5H60c1.3 0 2.3-.3 3-1s1.1-1.5 1.1-2.7c0-2.5-1.3-3.7-3.8-3.8h-4.9zm16-11.6c0-.6.2-1.1.6-1.5s.9-.6 1.7-.6 1.3.2 1.7.6.6.9.6 1.5-.2 1.1-.6 1.5-.9.6-1.7.6c-.7 0-1.3-.2-1.7-.6s-.6-.9-.6-1.5zm4.2 22.4h-4V15.3h4v17.8zm9-22.1v4.3h3.1v2.9h-3.1v9.9c0 .7.1 1.2.4 1.4.3.3.7.5 1.4.5.5 0 .9 0 1.4-.2V33c-.9.2-1.8.4-2.6.4-3.1 0-4.6-1.7-4.6-5.1v-10h-2.9v-2.9h2.9V11h4zm15.1 8c-.5-.1-1.1-.1-1.6-.1-1.8 0-3.1.7-3.7 2.1v12.2h-4V15.3h3.8v2c1-1.5 2.3-2.3 4-2.3.6 0 1 .1 1.4.2l.1 3.8zm9.6 14.4c-2.5 0-4.6-.8-6.2-2.4s-2.3-3.7-2.3-6.4v-.5c0-1.8.3-3.4 1-4.8s1.6-2.5 2.9-3.3c1.2-.8 2.6-1.2 4.2-1.2 2.4 0 4.3.8 5.6 2.3s2 3.7 2 6.5v1.6h-11.6c.1 1.5.6 2.6 1.5 3.5.8.9 2 1.3 3.2 1.3 1.8 0 3.3-.7 4.5-2.2l2.2 2.1c-.7 1.1-1.7 1.9-2.9 2.5-1.3.7-2.6 1-4.1 1zm-.5-15.2c-1.1 0-2 .4-2.7 1.2-.7.7-1.1 1.8-1.3 3.2h7.6v-.3c-.1-1.4-.4-2.3-1.1-3-.5-.8-1.4-1.1-2.5-1.1zm11.7 14.9V18.3h-2.7v-2.9h2.7v-1.6c0-2 .6-3.5 1.6-4.6 1.1-1.1 2.6-1.6 4.6-1.6a8.33 8.33 0 012.2.3V11c-.4-.1-.9-.1-1.5-.1-1.9 0-2.9 1-2.9 2.9v1.6h3.6v2.9h-3.6v14.8h-4zm10.6-22.4c0-.6.2-1.1.6-1.5s.9-.6 1.7-.6 1.3.2 1.7.6.6.9.6 1.5-.2 1.1-.6 1.5-.9.6-1.7.6c-.7 0-1.3-.2-1.7-.6s-.6-.9-.6-1.5zm4.2 22.4h-4V15.3h4v17.8zm8.2 0h-4V7.8h4v25.3zm8.1 0h-4V7.8h4v25.3z" class="bitrefill-logo-text"></path>
    <path fill="#FFFFFF" d="M10.7 16.3c0 .8.6 1.4 1.4 1.4h.2v-.9h-.1a.65.65 0 01-.6-.6.65.65 0 01.6-.6h.1v-.8h-.2c-.8.1-1.4.8-1.4 1.5zm4.7 7.8c.1 3.7 3.1 6.6 6.8 6.6s6.8-3.1 6.8-6.9c0-3.7-2.8-6.7-6.3-6.9h-5.2v.8h4.8c3.3 0 5.9 2.7 5.9 6.1s-2.7 6.1-5.9 6.1-5.8-2.6-5.9-5.9l-1 .1z"></path>
    <path fill="#FFFFFF" d="M40.2 5.9c-.9-2.4-2.8-4.3-5.2-5.2-2.2-.7-4.2-.7-8.4-.7H14.3c-4.1 0-6.2 0-8.4.7-2.4.9-4.3 2.8-5.2 5.2C0 8.1 0 10.2 0 14.3v12.4c0 4.1 0 6.2.7 8.4.9 2.4 2.8 4.3 5.2 5.2 2.2.7 4.3.7 8.4.7h12.4c4.1 0 6.2 0 8.4-.7 2.4-.9 4.3-2.8 5.2-5.2.7-2.2.7-4.3.7-8.4V14.3c-.1-4.1-.1-6.2-.8-8.4zm-18.1 28c-5.4 0-9.7-4.4-9.8-9.9v-5.1h-.2c-1.4 0-2.5-1.1-2.5-2.6 0-1.4 1.1-2.6 2.5-2.6h.2v-6c0-1.4 1.1-2.6 2.5-2.6s2.5 1.1 2.5 2.6v6.1h5.2c5.2.2 9.4 4.6 9.4 10 .1 5.6-4.3 10.1-9.8 10.1zm.3-19h-5.1v.8h5.4c4.2.2 7.5 3.7 7.5 8.1 0 4.5-3.5 8.1-7.9 8.1-4.3 0-7.7-3.5-7.9-7.8V24h-.8c.1 4.8 4 8.7 8.7 8.7 4.8 0 8.7-4 8.7-8.9-.2-4.8-3.9-8.7-8.6-8.9z"></path>
    <path fill="#FFFFFF" d="M22.1 28.8c2.7 0 4.8-2.2 4.8-4.9S24.7 19 22.1 19h-4.9v5c.2 2.7 2.3 4.8 4.9 4.8zM14.3 7.7a.65.65 0 01.6-.6.65.65 0 01.6.6V24h.8V7.7c0-.8-.6-1.4-1.4-1.4s-1.4.6-1.4 1.4V24h.8V7.7z"></path>
</svg>